<?xml version="1.0" encoding="UTF-8" standalone="no"?>
<svg
   version="1.1"
   width="1321"
   height="451"
   viewBox="0 0 990.75005 338.24999"
   id="svg291"
   sodipodi:docname="logo.svg"
   inkscape:version="1.3.2 (091e20e, 2023-11-25)"
   xmlns:inkscape="http://www.inkscape.org/namespaces/inkscape"
   xmlns:sodipodi="http://sodipodi.sourceforge.net/DTD/sodipodi-0.dtd"
   xmlns="http://www.w3.org/2000/svg"
   xmlns:svg="http://www.w3.org/2000/svg">
  <sodipodi:namedview
     id="namedview291"
     pagecolor="#505050"
     bordercolor="#eeeeee"
     borderopacity="1"
     inkscape:showpageshadow="0"
     inkscape:pageopacity="0"
     inkscape:pagecheckerboard="0"
     inkscape:deskcolor="#505050"
     inkscape:document-units="pt"
     inkscape:zoom="0.66815476"
     inkscape:cx="493.89755"
     inkscape:cy="214.02227"
     inkscape:window-width="1440"
     inkscape:window-height="847"
     inkscape:window-x="0"
     inkscape:window-y="25"
     inkscape:window-maximized="0"
     inkscape:current-layer="svg291" />
  <defs
     id="defs1">
    <clipPath
       clipPathUnits="userSpaceOnUse"
       id="clipPath291">
      <g
         id="g292"
         transform="matrix(1.3331632,0,0,1.3332176,-4.1622689,-1.3328921)">
        <path
           d="M 3.122,809.5699 H 1137.2662 V 1 H 3.122 Z"
           fill-rule="evenodd"
           id="path292" />
      </g>
    </clipPath>
  </defs>
  <g
     id="g295"
     style="fill:#000000;fill-opacity:1.0">
    <path
       d="m 412.55269,140.71872 h -34.3423 v 54.7687 h 2.9307 v -25.9525 h 27.3844 v -2.9308 h -27.3844 v -22.9544 h 31.4116 z m 36.0805,54.7687 h 2.9084 v -54.7687 h -2.9084 z m 56.4174,-54.7687 h -16.7125 v 54.7687 h 16.7125 c 15.2359,0 27.6304,-12.3052 27.6304,-27.3841 0,-15.0573 -12.3945,-27.3846 -27.6304,-27.3846 z m 0,52.0169 h -13.9606 v -49.2429 h 13.9606 c 13.737,0 24.8785,11.0523 24.8785,24.6106 0,13.6696 -11.1415,24.6323 -24.8785,24.6323 z m 100.2458,-52.1734 v 35.5278 c 0,10.0905 -8.0543,18.055 -18.0777,18.055 -10.1123,0 -18.144,-7.9645 -18.144,-18.055 v -35.5278 h -2.931 v 35.5278 c 0,11.5222 9.5533,21.0756 21.075,21.0756 11.4551,0 20.9861,-9.5534 20.9861,-21.0756 v -35.5278 z m 65.4115,1.499 c 8.7698,0 16.7346,4.3403 21.6342,11.6113 h 0.3136 l 2.2147,-1.6555 c -5.3022,-7.9871 -14.3632,-12.9537 -24.1625,-12.9537 -15.9299,0 -29.1073,13.1774 -29.1073,29.1291 0,15.9298 13.1774,29.1296 29.1073,29.1296 9.7993,0 18.8603,-4.9892 24.1625,-12.9537 l -2.2147,-1.6558 h -0.3136 c -4.8996,7.2712 -12.8644,11.6115 -21.6342,11.6115 -14.5202,0 -26.1987,-11.6115 -26.1987,-26.1316 0,-14.5199 11.6785,-26.1312 26.1987,-26.1312 z m 60.0862,53.4262 h 2.9086 v -54.7687 h -2.9086 z m 60.6906,-54.6122 h -3.2437 l -20.6727,54.4558 h 2.9979 l 5.8394,-15.5492 h 26.9146 l 5.8394,15.5492 h 2.9979 z m 10.7391,36.3111 h -24.6997 l 12.3052,-33 z m 43.7992,18.3011 h 2.9084 v -54.7687 h -2.9084 z m 76.0833,-38.2799 c 0,-9.061 -7.3386,-16.3992 -16.4216,-16.3992 h -19.8896 v 54.6791 h 2.6175 v -21.7686 h 16.5563 l 13.3566,21.7686 h 3.4676 l -13.4235,-22.0149 c 7.8081,-1.2527 13.7367,-8.0541 13.7367,-16.265 z m -16.4216,13.8262 h -17.2721 v -27.63 h 17.2721 c 7.5841,0 13.8041,6.2416 13.8041,13.8038 0,7.6737 -6.22,13.8262 -13.8041,13.8262 z m 84.3613,-30.2254 h -34.1633 v 54.6122 h 34.1633 v -2.7746 h -31.4116 v -23.111 h 27.3847 v -2.8415 h -27.3847 v -23.1333 h 31.4116 z"
       fill="#fefefe"
       id="path10"
       style="fill:#000000;fill-opacity:1.0" />
    <path
       style="color:#000000;fill:#000000;stroke-miterlimit:10;-inkscape-stroke:none;fill-opacity:1.0"
       d="m 348.07617,111.02734 v 114.33008 h 1.5 V 111.02734 Z"
       id="path5" />
    <path
       id="path6"
       d="M 276.38818 129.51416 C 271.35099 129.51416 266.26661 131.72088 262.62012 135.36768 C 259.45082 138.53775 257.48165 142.79768 257.02002 147.19775 C 249.76769 136.46082 237.50378 129.45113 223.55127 129.59912 L 201.81885 129.8291 L 202.29785 175.00928 C 200.25602 170.45965 196.91517 166.63371 192.6416 164.13135 C 196.6235 160.48515 199.50146 155.54331 199.50146 149.69092 C 199.50146 138.75203 190.7716 130.021 179.83301 130.021 L 150.75879 130.021 L 142.84277 130.021 L 142.84277 137.93701 L 142.84277 160.96582 L 142.84277 168.88037 L 142.84277 202.36816 L 142.84277 210.28418 L 150.75879 210.28418 L 179.83301 210.28418 C 190.07117 210.28418 198.7399 204.23343 202.51465 195.45117 L 202.66992 210.08789 L 224.40088 209.85791 C 224.7204 209.85453 225.03547 209.83489 225.35303 209.82422 L 225.35303 209.83594 L 257.27783 209.83594 L 257.27783 209.79346 L 293.85205 209.79346 C 307.66894 209.79346 318.60791 198.85319 318.60791 185.0332 C 318.60791 171.26122 307.66894 160.46484 293.85205 160.46484 L 276.38818 160.46484 C 270.19959 160.46484 264.82617 155.37857 264.82617 149.18848 C 264.82617 146.30938 266.26664 143.3346 268.47363 141.0791 C 270.68013 138.8718 273.55809 137.43164 276.38818 137.43164 L 305.60596 137.43164 L 305.60596 129.51416 L 276.38818 129.51416 z M 223.63477 137.51514 C 241.38475 137.32714 255.83563 151.80715 256.02393 169.55713 C 256.20473 186.63651 243.11353 200.65151 226.31104 201.854 L 225.35303 201.854 L 225.35303 201.90527 C 225.00852 201.9198 224.66473 201.93821 224.31738 201.94189 L 210.50098 202.08838 L 209.81836 137.66162 L 223.63477 137.51514 z M 150.75879 137.93701 L 179.83301 137.93701 C 185.9739 137.93701 191.05811 143.50172 191.05811 149.69092 C 191.05811 155.87951 185.9739 160.96582 179.83301 160.96582 L 175.8501 160.96582 L 150.75879 160.96582 L 150.75879 137.93701 z M 263.46533 163.70215 C 266.8796 166.63382 271.37503 168.38232 276.38818 168.38232 L 293.85205 168.38232 C 302.91924 168.38232 310.69189 176.01221 310.69189 185.0332 C 310.69189 194.10239 302.91924 201.87598 293.85205 201.87598 L 257.27783 201.87598 L 257.27783 201.854 L 248.08447 201.854 C 257.85658 194.49947 264.08079 182.75283 263.93994 169.47363 C 263.91917 167.51269 263.75288 165.58634 263.46533 163.70215 z M 150.75879 168.88037 L 175.8501 168.88037 L 179.83301 168.88037 C 188.8522 168.88037 196.62305 176.50903 196.62305 185.52832 C 196.62305 194.59571 188.8522 202.36816 179.83301 202.36816 L 150.75879 202.36816 L 150.75879 168.88037 z "
       style="fill:#000000;fill-opacity:1.0" />
  </g>
  <g
     id="g293"
     transform="translate(-73.981007,-56.005382)">
    <path
       d="m 388.5448,193.5728 v 0 c -2.0993,0 -3.8007,-1.7011 -3.8007,-3.7995 0,-2.0991 1.7014,-3.8006 3.8007,-3.8006 2.0979,0 3.7993,1.7015 3.7993,3.8006 0,2.0984 -1.7014,3.7995 -3.7993,3.7995"
       fill="#009edc"
       id="path9" />
    <path
       d="m 292.4985,293.3172 c -0.6106,0.023 -1.1225,-0.4551 -1.1438,-1.0664 -0.0215,-0.6095 0.4564,-1.1211 1.0653,-1.1441 0.612,-0.022 1.1237,0.4564 1.1452,1.067 0.0215,0.6103 -0.4561,1.1219 -1.0667,1.1435"
       fill="#009edc"
       id="path12" />
    <path
       d="m 281.0426,300.2504 c -0.7382,0.026 -1.3575,-0.5524 -1.3839,-1.2906 -0.0252,-0.7384 0.5508,-1.3589 1.2903,-1.3838 0.7382,-0.027 1.3576,0.551 1.3842,1.2888 0.0264,0.7395 -0.5525,1.3587 -1.2906,1.3856"
       fill="#009edc"
       id="path13" />
    <path
       d="m 268.6101,305.2119 c -0.881,0.031 -1.6206,-0.6585 -1.6506,-1.5379 -0.032,-0.8809 0.6571,-1.6194 1.5381,-1.6508 0.881,-0.032 1.6188,0.6574 1.6503,1.5384 0.0318,0.8804 -0.6571,1.62 -1.5378,1.6503"
       fill="#009edc"
       id="path14" />
    <path
       d="m 255.5328,308.0693 c -1.0324,0.035 -1.8984,-0.7711 -1.935,-1.8049 -0.0365,-1.0311 0.7711,-1.8984 1.8037,-1.9338 1.0324,-0.037 1.8984,0.7696 1.9349,1.8037 0.0366,1.0313 -0.771,1.8984 -1.8036,1.935"
       fill="#009edc"
       id="path15" />
    <path
       d="m 242.1671,308.768 c -1.1843,0.041 -2.1776,-0.885 -2.2192,-2.0691 -0.042,-1.1831 0.8847,-2.1775 2.069,-2.2194 1.1829,-0.042 2.1776,0.8848 2.2189,2.069 0.0406,1.1842 -0.8844,2.1778 -2.0687,2.2195"
       fill="#009edc"
       id="path16" />
    <path
       d="m 228.8704,307.2979 c -1.336,0.046 -2.4571,-0.9986 -2.5042,-2.3346 -0.0465,-1.3346 0.9987,-2.4569 2.3335,-2.5039 1.336,-0.046 2.4571,0.9984 2.5036,2.3346 0.047,1.3349 -0.997,2.4558 -2.3329,2.5039"
       fill="#009edc"
       id="path17" />
    <path
       d="m 215.9963,303.6679 c -1.4814,0.053 -2.7236,-1.1062 -2.7754,-2.5869 -0.0531,-1.4817 1.1057,-2.7241 2.5868,-2.7757 1.48,-0.052 2.7241,1.1058 2.7757,2.5872 0.0519,1.4814 -1.1058,2.7235 -2.5871,2.7754"
       fill="#009edc"
       id="path18" />
    <path
       d="m 203.896,297.979 c -1.6089,0.057 -2.9585,-1.2016 -3.0155,-2.8119 -0.057,-1.6076 1.2022,-2.9577 2.8111,-3.0147 1.609,-0.056 2.96,1.2022 3.0155,2.81 0.057,1.6101 -1.2019,2.96 -2.8111,3.0166"
       fill="#009edc"
       id="path19" />
    <path
       d="m 192.8868,290.3944 c -1.7365,0.061 -3.1935,-1.2967 -3.2556,-3.0331 -0.0604,-1.7368 1.2983,-3.1952 3.0348,-3.257 1.7365,-0.059 3.1938,1.298 3.2544,3.0345 0.0618,1.7365 -1.2965,3.1938 -3.0336,3.2556"
       fill="#009edc"
       id="path20" />
    <path
       d="m 183.2561,281.1254 c -1.8227,0.063 -3.3517,-1.3615 -3.4163,-3.185 -0.0632,-1.8217 1.3626,-3.351 3.1836,-3.4155 1.8226,-0.063 3.3519,1.3615 3.4166,3.1842 0.0629,1.8224 -1.3615,3.3519 -3.1839,3.4163"
       fill="#009edc"
       id="path21" />
    <path
       d="m 175.2601,270.4157 c -1.9085,0.068 -3.5087,-1.4247 -3.577,-3.3329 -0.0669,-1.9074 1.4255,-3.5087 3.3341,-3.577 1.9074,-0.067 3.5084,1.4258 3.5756,3.3341 0.0669,1.9082 -1.4255,3.5087 -3.3327,3.5758"
       fill="#009edc"
       id="path22" />
    <path
       d="m 169.1206,258.5454 c -1.9627,0.07 -3.6097,-1.4658 -3.6791,-3.4287 -0.0695,-1.9642 1.4661,-3.6111 3.4291,-3.6804 1.9638,-0.07 3.6107,1.4662 3.6805,3.4302 0.0694,1.964 -1.4661,3.6109 -3.4305,3.6789"
       fill="#009edc"
       id="path23" />
    <path
       d="m 165.0154,245.8304 c -1.9956,0.07 -3.67,-1.4916 -3.7408,-3.4872 -0.0712,-1.9959 1.4913,-3.6703 3.4868,-3.7409 1.9956,-0.07 3.6715,1.491 3.7412,3.4869 0.0695,1.9956 -1.4913,3.6703 -3.4872,3.7412"
       fill="#009edc"
       id="path24" />
    <path
       d="m 163.0479,232.6137 c -2.0285,0.072 -3.731,-1.5154 -3.803,-3.5438 -0.0705,-2.0287 1.5154,-3.7312 3.5439,-3.8021 2.0299,-0.072 3.7324,1.5154 3.803,3.5428 0.072,2.0299 -1.5151,3.7309 -3.5439,3.8031"
       fill="#009edc"
       id="path25" />
    <path
       d="m 163.2395,219.219 c -2.0044,0.071 -3.687,-1.4981 -3.7576,-3.5025 -0.0708,-2.0047 1.4978,-3.6865 3.5022,-3.7576 2.0044,-0.071 3.687,1.4967 3.7576,3.5025 0.0709,2.0046 -1.4975,3.6864 -3.5022,3.7576"
       fill="#009edc"
       id="path26" />
    <path
       d="m 165.6056,206.0274 c -1.9729,0.07 -3.6275,-1.4735 -3.6969,-3.445 -0.0695,-1.9729 1.4737,-3.6274 3.4455,-3.6969 1.9729,-0.069 3.6272,1.4735 3.6969,3.4455 0.0695,1.9729 -1.474,3.6268 -3.4455,3.6964"
       fill="#009edc"
       id="path27" />
    <path
       d="m 170.1014,193.4022 c -1.9324,0.068 -3.5544,-1.4433 -3.621,-3.3747 -0.0683,-1.9324 1.442,-3.5538 3.3746,-3.6221 1.9324,-0.067 3.5541,1.4431 3.621,3.3758 0.068,1.9324 -1.442,3.5529 -3.3746,3.621"
       fill="#009edc"
       id="path28" />
    <path
       d="m 176.5961,181.6871 c -1.8465,0.066 -3.3973,-1.3784 -3.462,-3.2266 -0.0654,-1.8465 1.3805,-3.3974 3.227,-3.4618 1.8465,-0.065 3.3959,1.3803 3.4617,3.2268 0.0643,1.8476 -1.3802,3.3973 -3.2267,3.4616"
       fill="#009edc"
       id="path29" />
    <path
       d="m 184.9064,171.1818 c -1.7617,0.062 -3.2408,-1.3168 -3.3023,-3.0788 -0.0621,-1.7619 1.3169,-3.2404 3.0784,-3.3013 1.7606,-0.062 3.2394,1.3159 3.3026,3.0776 0.061,1.7617 -1.3169,3.2409 -3.0787,3.3025"
       fill="#009edc"
       id="path30" />
    <path
       d="m 194.8064,162.1613 c -1.648,0.058 -3.0294,-1.2312 -3.0878,-2.8781 -0.0581,-1.648 1.23,-3.0306 2.8781,-3.0889 1.648,-0.058 3.0293,1.2311 3.0875,2.8795 0.0584,1.6466 -1.2297,3.0293 -2.8778,3.0875"
       fill="#009edc"
       id="path31" />
    <path
       d="m 206.0376,154.8697 c -1.5205,0.053 -2.797,-1.135 -2.8503,-2.6564 -0.053,-1.5205 1.1367,-2.796 2.657,-2.8491 1.5202,-0.054 2.7958,1.1351 2.8502,2.6555 0.053,1.5206 -1.1364,2.797 -2.6569,2.85"
       fill="#009edc"
       id="path32" />
    <path
       d="m 218.3068,149.5136 c -1.3842,0.05 -2.5441,-1.0338 -2.5934,-2.4165 -0.0482,-1.3839 1.0337,-2.5444 2.4162,-2.5934 1.3842,-0.048 2.5455,1.0337 2.5937,2.4166 0.0493,1.3837 -1.0327,2.544 -2.4165,2.5933"
       fill="#009edc"
       id="path33" />
    <path
       d="m 231.2863,146.2426 c -1.2325,0.045 -2.266,-0.9211 -2.3105,-2.1533 -0.0428,-1.2326 0.9201,-2.2678 2.1541,-2.3107 1.2319,-0.043 2.266,0.9214 2.3099,2.1539 0.0431,1.2321 -0.921,2.267 -2.1535,2.3101"
       fill="#009edc"
       id="path34" />
    <path
       d="m 244.6233,145.127 c -1.0819,0.038 -1.9896,-0.809 -2.0276,-1.8905 -0.038,-1.0819 0.8079,-1.9895 1.8896,-2.0276 1.082,-0.038 1.9896,0.8077 2.0285,1.891 0.0379,1.0806 -0.8085,1.9891 -1.8905,2.0271"
       fill="#009edc"
       id="path35" />
    <path
       d="m 257.9603,146.1756 c -0.93,0.033 -1.7124,-0.6954 -1.745,-1.6269 -0.0328,-0.9311 0.6951,-1.7124 1.6266,-1.745 0.9314,-0.033 1.7135,0.695 1.7467,1.6266 0.0314,0.9314 -0.6965,1.7124 -1.6283,1.7453"
       fill="#009edc"
       id="path36" />
    <path
       d="m 270.9453,149.3925 c -0.7827,0.027 -1.4386,-0.5838 -1.4661,-1.3659 -0.0266,-0.7827 0.5851,-1.4386 1.366,-1.465 0.7824,-0.028 1.4383,0.584 1.4664,1.3649 0.0275,0.7824 -0.5839,1.4386 -1.3663,1.466"
       fill="#009edc"
       id="path37" />
    <path
       d="m 283.2204,154.6945 c -0.6545,0.023 -1.2044,-0.4892 -1.2271,-1.1438 -0.0229,-0.6549 0.4893,-1.2047 1.1438,-1.2271 0.6548,-0.023 1.2044,0.489 1.2274,1.1435 0.0224,0.6551 -0.489,1.2045 -1.1441,1.2274"
       fill="#009edc"
       id="path38" />
    <path
       d="m 294.4646,161.9288 c -0.5269,0.019 -0.9706,-0.3947 -0.9895,-0.9215 -0.0179,-0.5285 0.3945,-0.9706 0.9226,-0.9896 0.527,-0.018 0.9695,0.394 0.9885,0.9213 0.019,0.5283 -0.3943,0.9708 -0.9216,0.9898"
       fill="#009edc"
       id="path39" />
    <path
       d="m 304.4154,305.0455 c -0.5877,0.022 -1.0806,-0.4399 -1.1021,-1.0264 -0.0202,-0.589 0.4399,-1.082 1.0275,-1.1035 0.5879,-0.02 1.0806,0.4398 1.101,1.0275 0.0213,0.5879 -0.4385,1.0809 -1.0264,1.1024"
       fill="#009edc"
       id="path40" />
    <path
       d="m 293.2576,312.4573 c -0.6939,0.025 -1.2764,-0.5185 -1.3019,-1.2136 -0.0238,-0.6938 0.5196,-1.2764 1.2135,-1.3005 0.6939,-0.025 1.2764,0.5182 1.3017,1.2133 0.0238,0.6939 -0.5196,1.2764 -1.2133,1.3008"
       fill="#009edc"
       id="path41" />
    <path
       d="m 281.1971,318.2816 c -0.8025,0.028 -1.4766,-0.6003 -1.5055,-1.4029 -0.0275,-0.8024 0.6004,-1.4759 1.4029,-1.5051 0.8024,-0.028 1.4765,0.6001 1.5054,1.4026 0.0275,0.8024 -0.6003,1.4777 -1.4028,1.5054"
       fill="#009edc"
       id="path42" />
    <path
       d="m 268.4553,322.4015 c -0.9292,0.032 -1.709,-0.6951 -1.7419,-1.6229 -0.0325,-0.9303 0.694,-1.7098 1.6243,-1.7418 0.9286,-0.033 1.7084,0.6942 1.7416,1.6231 0.0329,0.9289 -0.695,1.709 -1.624,1.7416"
       fill="#009edc"
       id="path43" />
    <path
       d="m 255.2748,324.7443 c -1.0553,0.036 -1.9414,-0.7888 -1.978,-1.8442 -0.0363,-1.055 0.7886,-1.9412 1.8442,-1.9777 1.0553,-0.038 1.9415,0.7886 1.978,1.8439 0.0366,1.0554 -0.7886,1.9412 -1.8442,1.978"
       fill="#009edc"
       id="path44" />
    <path
       d="m 241.897,325.2911 c -1.1821,0.041 -2.1742,-0.8824 -2.2147,-2.0653 -0.0414,-1.1805 0.8821,-2.174 2.0642,-2.2141 1.1814,-0.042 2.1738,0.8821 2.2144,2.0636 0.0414,1.1828 -0.8824,2.174 -2.0639,2.2158"
       fill="#009edc"
       id="path45" />
    <path
       d="m 228.571,324.0323 c -1.3084,0.045 -2.4055,-0.976 -2.4508,-2.2856 -0.0465,-1.3079 0.976,-2.4049 2.2839,-2.4505 1.3082,-0.045 2.4052,0.9756 2.4519,2.2852 0.0457,1.3079 -0.9768,2.4051 -2.285,2.4509"
       fill="#009edc"
       id="path46" />
    <path
       d="m 215.5427,320.9686 c -1.4346,0.05 -2.6379,-1.0718 -2.6884,-2.505 -0.0507,-1.4343 1.0718,-2.638 2.505,-2.6883 1.4343,-0.051 2.6379,1.0702 2.6884,2.505 0.0504,1.4345 -1.0721,2.6378 -2.505,2.6883"
       fill="#009edc"
       id="path47" />
    <path
       d="m 203.0592,316.1513 c -1.5432,0.054 -2.8372,-1.1513 -2.8916,-2.6948 -0.0544,-1.543 1.1526,-2.8375 2.6946,-2.8916 1.5429,-0.055 2.8375,1.1525 2.8919,2.6957 0.0542,1.5417 -1.1528,2.8364 -2.6949,2.8907"
       fill="#009edc"
       id="path48" />
    <path
       d="m 191.3524,309.6799 c -1.6495,0.058 -3.0333,-1.2322 -3.0915,-2.8803 -0.0583,-1.6495 1.2323,-3.0336 2.8806,-3.0914 1.6489,-0.058 3.0331,1.2322 3.0912,2.8817 0.0584,1.648 -1.2311,3.0321 -2.8803,3.09"
       fill="#009edc"
       id="path49" />
    <path
       d="m 180.6295,301.6818 c -1.749,0.062 -3.2165,-1.3066 -3.2771,-3.0559 -0.0618,-1.7492 1.3056,-3.2168 3.0546,-3.2783 1.7495,-0.061 3.217,1.3065 3.2774,3.056 0.0621,1.7491 -1.3053,3.2166 -3.0549,3.2782"
       fill="#009edc"
       id="path50" />
    <path
       d="m 171.0881,292.3092 c -1.8198,0.064 -3.348,-1.3601 -3.4109,-3.1816 -0.0647,-1.8184 1.3583,-3.3466 3.1799,-3.411 1.8198,-0.065 3.3466,1.3598 3.4109,3.1811 0.0646,1.8189 -1.3598,3.3469 -3.1799,3.4115"
       fill="#009edc"
       id="path51" />
    <path
       d="m 162.9031,281.7326 c -1.8919,0.067 -3.4784,-1.4128 -3.5453,-3.305 -0.0669,-1.8909 1.413,-3.4783 3.304,-3.5456 1.8919,-0.067 3.4793,1.4131 3.545,3.3041 0.0669,1.8922 -1.4116,3.4796 -3.3037,3.5465"
       fill="#009edc"
       id="path52" />
    <path
       d="m 156.2311,270.1428 c -1.951,0.068 -3.588,-1.4573 -3.6575,-3.4086 -0.068,-1.9531 1.4584,-3.5895 3.4101,-3.659 1.9514,-0.069 3.5895,1.4583 3.6575,3.4084 0.0683,1.9515 -1.4587,3.5895 -3.4101,3.6592"
       fill="#009edc"
       id="path53" />
    <path
       d="m 151.207,257.7506 c -1.9788,0.07 -3.6385,-1.4785 -3.7094,-3.4566 -0.0694,-1.9791 1.4791,-3.6385 3.4569,-3.7094 1.9791,-0.07 3.6402,1.4786 3.7097,3.4566 0.0694,1.9794 -1.4792,3.6388 -3.4572,3.7094"
       fill="#009edc"
       id="path54" />
    <path
       d="m 147.9265,244.7895 c -2.0055,0.072 -3.689,-1.4988 -3.7599,-3.5034 -0.0697,-2.0058 1.499,-3.6893 3.5045,-3.7601 2.0058,-0.071 3.6893,1.4978 3.7604,3.5036 0.0706,2.0058 -1.4989,3.6892 -3.505,3.7599"
       fill="#009edc"
       id="path55" />
    <path
       d="m 146.4386,231.5015 c -2.0325,0.072 -3.7386,-1.5191 -3.8106,-3.5527 -0.0709,-2.0325 1.5191,-3.7386 3.5515,-3.8094 2.0336,-0.072 3.7386,1.5179 3.8106,3.5515 0.072,2.0335 -1.5191,3.7386 -3.5515,3.8106"
       fill="#009edc"
       id="path56" />
    <path
       d="m 146.7467,218.1024 c -2.0058,0.071 -3.6893,-1.4989 -3.7604,-3.5047 -0.0706,-2.0054 1.4989,-3.689 3.505,-3.7602 2.0058,-0.069 3.6893,1.499 3.759,3.505 0.0706,2.0056 -1.4981,3.6891 -3.5036,3.7599"
       fill="#009edc"
       id="path57" />
    <path
       d="m 148.8659,204.8658 c -1.978,0.069 -3.6388,-1.4777 -3.7094,-3.4573 -0.0698,-1.9787 1.4785,-3.6399 3.458,-3.7093 1.978,-0.069 3.6385,1.4787 3.708,3.4569 0.0708,1.9791 -1.4775,3.6399 -3.4566,3.7097"
       fill="#009edc"
       id="path58" />
    <path
       d="m 152.7723,192.0455 c -1.9514,0.068 -3.5892,-1.4587 -3.6578,-3.4102 -0.0695,-1.9513 1.4576,-3.5894 3.4101,-3.6577 1.9513,-0.068 3.5895,1.4584 3.6578,3.4088 0.068,1.9526 -1.4587,3.5905 -3.4101,3.6591"
       fill="#009edc"
       id="path59" />
    <path
       d="m 158.3909,179.8798 c -1.8936,0.067 -3.481,-1.4145 -3.5482,-3.3066 -0.0654,-1.8931 1.4145,-3.4805 3.3078,-3.5476 1.8918,-0.067 3.4795,1.4142 3.5464,3.3067 0.0669,1.8929 -1.4131,3.4803 -3.306,3.5475"
       fill="#009edc"
       id="path60" />
    <path
       d="m 165.6082,168.5894 c -1.8216,0.064 -3.3506,-1.3611 -3.4152,-3.1828 -0.0632,-1.8209 1.3612,-3.3502 3.1824,-3.4149 1.8227,-0.064 3.3506,1.3612 3.4152,3.1825 0.0644,1.8227 -1.3615,3.3505 -3.1824,3.4152"
       fill="#009edc"
       id="path61" />
    <path
       d="m 174.2836,158.3781 c -1.7515,0.062 -3.2202,-1.3082 -3.2822,-3.0588 -0.0618,-1.7516 1.3081,-3.2199 3.0597,-3.282 1.7504,-0.061 3.2204,1.3079 3.2814,3.0586 0.0615,1.7518 -1.3085,3.2204 -3.0589,3.2822"
       fill="#009edc"
       id="path62" />
    <path
       d="m 184.2559,149.4323 c -1.6529,0.058 -3.0396,-1.2348 -3.098,-2.888 -0.0578,-1.652 1.235,-3.0384 2.8871,-3.0965 1.6529,-0.058 3.0393,1.2336 3.0988,2.8865 0.0581,1.652 -1.2348,3.0396 -2.8879,3.098"
       fill="#009edc"
       id="path63" />
    <path
       d="m 195.3453,141.9185 c -1.5469,0.054 -2.8449,-1.1563 -2.8993,-2.7031 -0.0547,-1.5461 1.1563,-2.8452 2.702,-2.8996 1.5469,-0.054 2.8449,1.1565 2.901,2.7035 0.0538,1.5471 -1.1566,2.845 -2.7037,2.8992"
       fill="#009edc"
       id="path64" />
    <path
       d="m 207.3523,135.9842 c -1.4397,0.051 -2.6479,-1.0758 -2.6983,-2.5165 -0.0508,-1.4393 1.0754,-2.6477 2.5149,-2.6982 1.4408,-0.052 2.649,1.0754 2.6994,2.5149 0.0508,1.4411 -1.0754,2.649 -2.516,2.6998"
       fill="#009edc"
       id="path65" />
    <path
       d="m 220.0557,131.7472 c -1.3144,0.046 -2.4179,-0.9819 -2.4644,-2.2966 -0.0456,-1.3144 0.9819,-2.418 2.2975,-2.4647 1.3144,-0.046 2.4179,0.9822 2.4636,2.2976 0.0465,1.3148 -0.9822,2.4167 -2.2967,2.4637"
       fill="#009edc"
       id="path66" />
    <path
       d="m 233.2153,129.2841 c -1.1891,0.042 -2.1875,-0.8886 -2.2294,-2.078 -0.0417,-1.1892 0.8889,-2.1875 2.0778,-2.228 1.1894,-0.042 2.1866,0.8869 2.2297,2.0763 0.0417,1.1898 -0.8887,2.1881 -2.0781,2.2297"
       fill="#009edc"
       id="path67" />
    <path
       d="m 246.5863,128.6175 c -1.0641,0.037 -1.9567,-0.7949 -1.9944,-1.8594 -0.0366,-1.0637 0.7948,-1.9563 1.8592,-1.9929 1.0641,-0.038 1.9565,0.7951 1.9945,1.8581 0.0365,1.064 -0.7949,1.9565 -1.8593,1.9942"
       fill="#009edc"
       id="path68" />
    <path
       d="m 259.9231,129.7543 c -0.9377,0.033 -1.7252,-0.7017 -1.7592,-1.6391 -0.0315,-0.9391 0.7015,-1.7266 1.6407,-1.7595 0.9374,-0.033 1.7248,0.7013 1.758,1.6393 0.0329,0.939 -0.7001,1.7266 -1.6395,1.7593"
       fill="#009edc"
       id="path69" />
    <path
       d="m 272.9797,132.6988 c -0.8138,0.027 -1.495,-0.608 -1.5239,-1.421 -0.0295,-0.8124 0.6075,-1.495 1.4205,-1.5239 0.8124,-0.029 1.4949,0.6076 1.5241,1.4204 0.0278,0.814 -0.608,1.4953 -1.4207,1.5245"
       fill="#009edc"
       id="path70" />
    <path
       d="m 285.5069,137.4001 c -0.7039,0.025 -1.2929,-0.5262 -1.3181,-1.2286 -0.0253,-0.7041 0.5258,-1.2943 1.2285,-1.3195 0.7041,-0.024 1.2943,0.5258 1.3195,1.2294 0.0241,0.7041 -0.5258,1.2931 -1.2299,1.3187"
       fill="#009edc"
       id="path71" />
    <path
       d="m 297.2732,143.7638 c -0.5975,0.022 -1.0996,-0.4461 -1.1211,-1.044 -0.0201,-0.5978 0.4476,-1.0995 1.044,-1.1199 0.599,-0.022 1.101,0.4464 1.1211,1.044 0.0215,0.5978 -0.4462,1.0984 -1.044,1.1199"
       fill="#009edc"
       id="path72" />
    <path
       d="m 308.0678,151.6651 c -0.4955,0.018 -0.9099,-0.369 -0.9281,-0.8645 -0.0175,-0.4955 0.3705,-0.91 0.8646,-0.9275 0.4955,-0.018 0.9099,0.3699 0.9281,0.8645 0.0176,0.495 -0.3694,0.9099 -0.8646,0.9275"
       fill="#009edc"
       id="path73" />
    <path
       d="m 318.1694,316.9845 c -0.5639,0.02 -1.0364,-0.4209 -1.0554,-0.9836 -0.0201,-0.5636 0.421,-1.0361 0.9834,-1.0551 0.5638,-0.02 1.0363,0.4207 1.0567,0.9831 0.019,0.5624 -0.4209,1.0355 -0.9847,1.0556"
       fill="#009edc"
       id="path74" />
    <path
       d="m 307.3311,324.8591 c -0.6534,0.022 -1.2019,-0.4889 -1.2246,-1.1415 -0.0229,-0.6534 0.4881,-1.2019 1.1412,-1.2245 0.6534,-0.024 1.2019,0.4881 1.2249,1.1412 0.0227,0.6534 -0.4878,1.2007 -1.1415,1.2248"
       fill="#009edc"
       id="path75" />
    <path
       d="m 295.6603,331.434 c -0.7435,0.027 -1.3674,-0.5549 -1.393,-1.2993 -0.0266,-0.7433 0.5551,-1.3663 1.298,-1.3927 0.7444,-0.027 1.3675,0.5545 1.3941,1.298 0.0255,0.743 -0.5562,1.3674 -1.2991,1.394"
       fill="#009edc"
       id="path76" />
    <path
       d="m 283.3094,336.6153 c -0.8416,0.029 -1.5482,-0.6282 -1.5771,-1.4701 -0.0295,-0.8417 0.629,-1.5481 1.4711,-1.5769 0.8405,-0.031 1.5469,0.628 1.5772,1.4695 0.0292,0.8419 -0.6293,1.5486 -1.4712,1.5775"
       fill="#009edc"
       id="path77" />
    <path
       d="m 270.443,340.3321 c -0.9482,0.033 -1.7444,-0.7093 -1.777,-1.6586 -0.0346,-0.948 0.7075,-1.743 1.6568,-1.7771 0.9476,-0.033 1.7442,0.709 1.777,1.6586 0.0326,0.9476 -0.7089,1.7439 -1.6568,1.7771"
       fill="#009edc"
       id="path78" />
    <path
       d="m 257.2361,342.5374 c -1.0551,0.037 -1.9412,-0.7876 -1.978,-1.8429 -0.0366,-1.0549 0.7889,-1.9399 1.8439,-1.9779 1.0556,-0.038 1.9403,0.7889 1.9769,1.8439 0.038,1.0554 -0.7875,1.9403 -1.8428,1.9769"
       fill="#009edc"
       id="path79" />
    <path
       d="m 243.8634,343.224 c -1.1617,0.041 -2.1359,-0.8686 -2.1776,-2.0291 -0.0405,-1.1625 0.8685,-2.1384 2.0299,-2.1785 1.1628,-0.04 2.137,0.8669 2.1776,2.0297 0.0416,1.1614 -0.8683,2.1373 -2.0299,2.1779"
       fill="#009edc"
       id="path80" />
    <path
       d="m 230.5023,342.3866 c -1.2691,0.044 -2.3335,-0.9476 -2.3777,-2.2167 -0.0454,-1.2688 0.9467,-2.3344 2.2155,-2.3788 1.2691,-0.044 2.3332,0.9479 2.3786,2.217 0.0445,1.269 -0.9476,2.3346 -2.2164,2.3785"
       fill="#009edc"
       id="path81" />
    <path
       d="m 217.3257,340.016 c -1.3754,0.048 -2.5305,-1.0276 -2.5784,-2.4029 -0.0493,-1.3763 1.0276,-2.5303 2.4027,-2.5781 1.3765,-0.048 2.5304,1.0275 2.5783,2.4026 0.048,1.3747 -1.0275,2.5305 -2.4026,2.5784"
       fill="#009edc"
       id="path82" />
    <path
       d="m 204.5151,336.1351 c -1.4763,0.052 -2.7159,-1.103 -2.7678,-2.5795 -0.0521,-1.4775 1.1033,-2.7159 2.5796,-2.7678 1.4774,-0.052 2.7158,1.1032 2.7688,2.5795 0.0519,1.4774 -1.1043,2.7162 -2.5806,2.7678"
       fill="#009edc"
       id="path83" />
    <path
       d="m 192.2425,330.7994 c -1.5676,0.054 -2.882,-1.1715 -2.9376,-2.7374 -0.0544,-1.5677 1.1716,-2.8814 2.7375,-2.9375 1.5675,-0.054 2.8819,1.1721 2.9375,2.7379 0.0541,1.567 -1.1704,2.8815 -2.7374,2.937"
       fill="#009edc"
       id="path84" />
    <path
       d="m 180.6689,324.0853 c -1.6566,0.059 -3.0469,-1.2376 -3.1051,-2.8945 -0.0584,-1.6571 1.2371,-3.0469 2.8942,-3.1053 1.6569,-0.058 3.0473,1.2373 3.1068,2.8941 0.0567,1.6572 -1.2388,3.0473 -2.8959,3.1057"
       fill="#009edc"
       id="path85" />
    <path
       d="m 169.9412,316.0885 c -1.7425,0.062 -3.2063,-1.302 -3.2669,-3.0461 -0.0621,-1.7431 1.3019,-3.2055 3.0447,-3.267 1.7441,-0.062 3.2062,1.3013 3.2683,3.0459 0.061,1.7427 -1.3031,3.205 -3.0461,3.2672"
       fill="#009edc"
       id="path86" />
    <path
       d="m 160.1999,306.9163 c -1.8034,0.064 -3.3173,-1.3461 -3.3808,-3.1506 -0.063,-1.8034 1.3473,-3.3165 3.1509,-3.3809 1.8034,-0.063 3.3177,1.347 3.3809,3.151 0.0632,1.8045 -1.3473,3.3175 -3.151,3.3805"
       fill="#009edc"
       id="path87" />
    <path
       d="m 151.5727,296.6917 c -1.8641,0.066 -3.4277,-1.3928 -3.4937,-3.2554 -0.0655,-1.8655 1.3929,-3.4291 3.257,-3.4949 1.8632,-0.066 3.4279,1.393 3.4937,3.2559 0.0643,1.864 -1.3927,3.4288 -3.257,3.4944"
       fill="#009edc"
       id="path88" />
    <path
       d="m 144.1768,285.544 c -1.9236,0.068 -3.5388,-1.4371 -3.6071,-3.3607 -0.0669,-1.925 1.4383,-3.5388 3.3622,-3.6074 1.9244,-0.067 3.5385,1.4372 3.6071,3.361 0.0669,1.925 -1.4386,3.5388 -3.3622,3.6071"
       fill="#009edc"
       id="path89" />
    <path
       d="m 138.1172,273.6187 c -1.9602,0.069 -3.6045,-1.4638 -3.674,-3.424 -0.0683,-1.959 1.465,-3.6045 3.424,-3.6731 1.9599,-0.068 3.6045,1.4635 3.6728,3.4239 0.0695,1.9605 -1.4638,3.6046 -3.4228,3.6732"
       fill="#009edc"
       id="path90" />
    <path
       d="m 133.4794,261.072 c -1.9831,0.071 -3.6465,-1.4811 -3.7159,-3.4628 -0.0706,-1.9846 1.48,-3.6477 3.4634,-3.7171 1.9828,-0.07 3.6473,1.481 3.717,3.4639 0.0695,1.9834 -1.4816,3.6465 -3.4645,3.716"
       fill="#009edc"
       id="path91" />
    <path
       d="m 130.3276,248.075 c -2.0055,0.071 -3.689,-1.4989 -3.7599,-3.5033 -0.0706,-2.0054 1.4978,-3.6889 3.5048,-3.7601 2.0058,-0.071 3.6893,1.4981 3.7587,3.5035 0.0709,2.0059 -1.4975,3.6894 -3.5036,3.7599"
       fill="#009edc"
       id="path92" />
    <path
       d="m 128.6929,234.8007 c -2.0285,0.072 -3.7321,-1.5151 -3.803,-3.545 -0.0709,-2.0276 1.5154,-3.7312 3.5439,-3.8021 2.0301,-0.072 3.7321,1.5154 3.8032,3.5442 0.072,2.0299 -1.5157,3.7324 -3.5441,3.8029"
       fill="#009edc"
       id="path93" />
    <path
       d="m 128.5761,221.4047 c -2.0146,0.071 -3.7055,-1.504 -3.7749,-3.5186 -0.0712,-2.0146 1.5037,-3.706 3.5183,-3.7754 2.0149,-0.072 3.7046,1.504 3.7755,3.5189 0.0706,2.0132 -1.5041,3.7046 -3.5189,3.7751"
       fill="#009edc"
       id="path94" />
    <path
       d="m 129.9883,208.0766 c -1.9908,0.071 -3.6615,-1.4878 -3.7324,-3.4783 -0.0694,-1.992 1.4876,-3.6628 3.4795,-3.7335 1.9905,-0.069 3.6615,1.4875 3.7324,3.4796 0.0697,1.992 -1.4879,3.6624 -3.4795,3.7322"
       fill="#009edc"
       id="path95" />
    <path
       d="m 132.9301,195.0001 c -1.969,0.069 -3.621,-1.4712 -3.689,-3.439 -0.0695,-1.9693 1.47,-3.6196 3.4375,-3.6905 1.9696,-0.069 3.621,1.4709 3.6905,3.4404 0.0686,1.9676 -1.4709,3.6196 -3.439,3.6891"
       fill="#009edc"
       id="path96" />
    <path
       d="m 137.3643,182.3533 c -1.9463,0.068 -3.5779,-1.4536 -3.6462,-3.3989 -0.0683,-1.9461 1.4533,-3.5792 3.3985,-3.6478 1.9454,-0.068 3.5781,1.4536 3.6465,3.4001 0.0694,1.9449 -1.4522,3.5779 -3.3988,3.6466"
       fill="#009edc"
       id="path97" />
    <path
       d="m 143.2281,170.3043 c -1.8879,0.067 -3.4719,-1.4093 -3.5374,-3.2975 -0.0672,-1.887 1.4094,-3.4705 3.2976,-3.5376 1.887,-0.066 3.4704,1.4105 3.5373,3.2975 0.0661,1.8869 -1.4105,3.4716 -3.2975,3.5376"
       fill="#009edc"
       id="path98" />
    <path
       d="m 150.4377,159.0087 c -1.8275,0.064 -3.3608,-1.3647 -3.4251,-3.1924 -0.0646,-1.8276 1.3649,-3.362 3.1924,-3.4249 1.8275,-0.066 3.3607,1.3648 3.4251,3.1923 0.0646,1.8275 -1.3649,3.3605 -3.1924,3.425"
       fill="#009edc"
       id="path99" />
    <path
       d="m 158.8917,148.6125 c -1.7682,0.062 -3.2507,-1.3192 -3.3137,-3.0875 -0.062,-1.7683 1.3207,-3.252 3.0887,-3.3127 1.7668,-0.063 3.2507,1.3194 3.3128,3.0878 0.0621,1.7669 -1.3209,3.2506 -3.0878,3.3124"
       fill="#009edc"
       id="path100" />
    <path
       d="m 168.4763,139.2514 c -1.6935,0.059 -3.1153,-1.2654 -3.1746,-2.9588 -0.0595,-1.6946 1.2651,-3.1156 2.96,-3.1763 1.6937,-0.058 3.1141,1.2666 3.1748,2.9603 0.0592,1.6934 -1.2663,3.1151 -2.9602,3.1748"
       fill="#009edc"
       id="path101" />
    <path
       d="m 179.069,131.0485 c -1.6052,0.055 -2.9511,-1.1982 -3.007,-2.8035 -0.0566,-1.6038 1.1983,-2.9497 2.8021,-3.0064 1.6038,-0.057 2.9511,1.1979 3.0067,2.8029 0.057,1.6041 -1.1979,2.9514 -2.8018,3.007"
       fill="#009edc"
       id="path102" />
    <path
       d="m 190.5318,124.1169 c -1.5157,0.053 -2.787,-1.1327 -2.8401,-2.6467 -0.053,-1.5141 1.1311,-2.7853 2.6465,-2.84 1.5154,-0.053 2.787,1.1327 2.84,2.6467 0.053,1.5154 -1.131,2.787 -2.6464,2.84"
       fill="#009edc"
       id="path103" />
    <path
       d="m 202.7162,118.555 c -1.4218,0.051 -2.6138,-1.0615 -2.6643,-2.4834 -0.0493,-1.4208 1.0616,-2.6135 2.4835,-2.6643 1.4207,-0.049 2.6141,1.0615 2.6645,2.4837 0.0491,1.4219 -1.0618,2.6136 -2.4837,2.664"
       fill="#009edc"
       id="path104" />
    <path
       d="m 215.4616,114.4423 c -1.3155,0.046 -2.4188,-0.9823 -2.4655,-2.298 -0.0454,-1.3156 0.983,-2.4192 2.2977,-2.4659 1.3159,-0.046 2.4188,0.9833 2.4659,2.2976 0.0453,1.3157 -0.9819,2.4192 -2.2981,2.4663"
       fill="#009edc"
       id="path105" />
    <path
       d="m 228.5943,111.8296 c -1.2096,0.043 -2.223,-0.9023 -2.266,-2.1119 -0.0429,-1.2096 0.9025,-2.2246 2.112,-2.266 1.2096,-0.043 2.2244,0.9023 2.2661,2.1119 0.043,1.2094 -0.9026,2.2232 -2.1121,2.266"
       fill="#009edc"
       id="path106" />
    <path
       d="m 241.9398,110.7387 c -1.103,0.037 -2.0285,-0.8242 -2.0676,-1.9274 -0.0388,-1.1036 0.824,-2.0285 1.9275,-2.0679 1.1022,-0.038 2.0285,0.8239 2.0665,1.9275 0.0391,1.1032 -0.8229,2.0285 -1.9264,2.0678"
       fill="#009edc"
       id="path107" />
    <path
       d="m 255.321,111.1668 c -0.9969,0.035 -1.8334,-0.7444 -1.8689,-1.7417 -0.034,-0.9972 0.7455,-1.834 1.7413,-1.8679 0.9973,-0.035 1.8352,0.7446 1.8695,1.7405 0.0351,0.9983 -0.7444,1.8337 -1.7419,1.8691"
       fill="#009edc"
       id="path108" />
    <path
       d="m 268.5662,113.1295 c -0.891,0.032 -1.6379,-0.6651 -1.6693,-1.5559 -0.0321,-0.8913 0.6644,-1.6396 1.5553,-1.6711 0.8912,-0.03 1.6396,0.6659 1.6696,1.5571 0.0321,0.8913 -0.6644,1.6379 -1.5556,1.6699"
       fill="#009edc"
       id="path109" />
    <path
       d="m 281.4916,116.611 c -0.7866,0.027 -1.4451,-0.5864 -1.4726,-1.3725 -0.0278,-0.786 0.5865,-1.4445 1.3725,-1.4723 0.7849,-0.028 1.4446,0.5865 1.4712,1.3724 0.0278,0.7865 -0.5851,1.445 -1.3711,1.4724"
       fill="#009edc"
       id="path110" />
    <path
       d="m 293.9241,121.5654 c -0.6965,0.024 -1.2804,-0.5208 -1.3045,-1.2157 -0.025,-0.6965 0.5195,-1.2802 1.216,-1.3057 0.6951,-0.024 1.279,0.5207 1.3045,1.2172 0.0238,0.6954 -0.521,1.2791 -1.216,1.3042"
       fill="#009edc"
       id="path111" />
    <path
       d="m 305.6989,127.9196 c -0.6066,0.021 -1.116,-0.4527 -1.1361,-1.0593 -0.023,-0.6064 0.4527,-1.116 1.059,-1.1373 0.6066,-0.021 1.116,0.4538 1.1361,1.0605 0.0216,0.6062 -0.4524,1.1145 -1.059,1.1361"
       fill="#009edc"
       id="path112" />
    <path
       d="m 315.1196,134.1823 c -0.5171,0.019 -0.9505,-0.3868 -0.9695,-0.9038 -0.0176,-0.5171 0.3869,-0.9505 0.904,-0.9681 0.517,-0.019 0.9504,0.3856 0.9691,0.9023 0.0179,0.5182 -0.3866,0.9516 -0.9036,0.9696"
       fill="#009edc"
       id="path113" />
    <path
       d="m 330.2943,328.6496 c -0.5525,0.02 -1.014,-0.411 -1.0338,-0.9635 -0.019,-0.551 0.4118,-1.0134 0.9629,-1.0323 0.5525,-0.02 1.0151,0.4107 1.0341,0.9629 0.019,0.5512 -0.4122,1.0139 -0.9632,1.0329"
       fill="#009edc"
       id="path114" />
    <path
       d="m 319.6334,336.7635 c -0.6309,0.023 -1.159,-0.4702 -1.1806,-1.0998 -0.0229,-0.6304 0.47,-1.16 1.1007,-1.1816 0.631,-0.021 1.1591,0.4702 1.1804,1.1011 0.0229,0.6293 -0.47,1.1574 -1.1005,1.1803"
       fill="#009edc"
       id="path115" />
    <path
       d="m 308.2127,343.7657 c -0.7093,0.025 -1.3043,-0.5295 -1.3286,-1.2377 -0.025,-0.71 0.5298,-1.3053 1.239,-1.3294 0.7075,-0.025 1.3028,0.5295 1.328,1.2373 0.0252,0.7101 -0.5295,1.3043 -1.2384,1.3298"
       fill="#009edc"
       id="path116" />
    <path
       d="m 296.1447,349.5789 c -0.7874,0.026 -1.4485,-0.5891 -1.4765,-1.3765 -0.0275,-0.7871 0.5879,-1.4481 1.3753,-1.476 0.7886,-0.028 1.4497,0.5874 1.4777,1.3763 0.0264,0.7874 -0.589,1.4486 -1.3765,1.4762"
       fill="#009edc"
       id="path117" />
    <path
       d="m 283.5507,354.1396 c -0.8807,0.03 -1.6189,-0.6586 -1.6509,-1.5395 -0.0315,-0.8796 0.6588,-1.6191 1.5395,-1.6495 0.8801,-0.031 1.6191,0.6574 1.6495,1.537 0.0317,0.8821 -0.6571,1.6214 -1.5381,1.652"
       fill="#009edc"
       id="path118" />
    <path
       d="m 270.5637,357.4006 c -0.9745,0.034 -1.7906,-0.7271 -1.8252,-1.7014 -0.0354,-0.9745 0.7271,-1.792 1.7017,-1.8261 0.9728,-0.033 1.7909,0.7279 1.8249,1.7019 0.0354,0.9735 -0.7271,1.791 -1.7014,1.8256"
       fill="#009edc"
       id="path119" />
    <path
       d="m 257.3146,359.3369 c -1.0681,0.038 -1.963,-0.7973 -2.0007,-1.8654 -0.038,-1.0657 0.7977,-1.9617 1.8655,-1.9996 1.0667,-0.038 1.9627,0.7977 1.9996,1.8646 0.0377,1.0678 -0.798,1.9639 -1.8644,2.0004"
       fill="#009edc"
       id="path120" />
    <path
       d="m 243.9357,359.9453 c -1.16,0.04 -2.1345,-0.868 -2.1751,-2.0271 -0.0405,-1.1605 0.8671,-2.1359 2.0271,-2.1764 1.1616,-0.041 2.135,0.867 2.1756,2.0273 0.0414,1.1616 -0.8671,2.1362 -2.0276,2.1762"
       fill="#009edc"
       id="path121" />
    <path
       d="m 230.5663,359.2224 c -1.254,0.043 -2.3068,-0.9366 -2.351,-2.1906 -0.0445,-1.2549 0.9365,-2.308 2.1914,-2.3519 1.2541,-0.044 2.3057,0.9366 2.3497,2.1915 0.0445,1.254 -0.9366,2.3065 -2.1901,2.351"
       fill="#009edc"
       id="path122" />
    <path
       d="m 217.3362,357.1562 c -1.3476,0.048 -2.4786,-1.0063 -2.5265,-2.3536 -0.0471,-1.3473 1.0071,-2.4783 2.3544,-2.5253 1.3476,-0.046 2.4786,1.0073 2.5254,2.3536 0.0482,1.3474 -1.0063,2.4783 -2.3533,2.5253"
       fill="#009edc"
       id="path123" />
    <path
       d="m 204.3855,353.7631 c -1.4408,0.05 -2.6504,-1.0771 -2.7011,-2.5166 -0.0504,-1.4419 1.0772,-2.6503 2.5166,-2.7008 1.442,-0.051 2.6504,1.0769 2.7009,2.5163 0.0507,1.4409 -1.0755,2.6504 -2.5164,2.7011"
       fill="#009edc"
       id="path124" />
    <path
       d="m 191.8473,349.0752 c -1.5205,0.053 -2.7972,-1.1351 -2.8502,-2.6567 -0.053,-1.5205 1.1361,-2.7954 2.6566,-2.849 1.5205,-0.054 2.797,1.1349 2.8506,2.6554 0.053,1.5205 -1.1365,2.7973 -2.657,2.8503"
       fill="#009edc"
       id="path125" />
    <path
       d="m 179.8489,343.1446 c -1.5985,0.057 -2.941,-1.1929 -2.998,-2.793 -0.0555,-1.6004 1.196,-2.9412 2.7944,-2.9979 1.599,-0.056 2.941,1.1939 2.9971,2.7943 0.0564,1.6001 -1.1934,2.9413 -2.7935,2.9966"
       fill="#009edc"
       id="path126" />
    <path
       d="m 168.5111,336.0404 c -1.6784,0.058 -3.0863,-1.2541 -3.1459,-2.9311 -0.0581,-1.6786 1.2538,-3.0877 2.9319,-3.1469 1.6787,-0.057 3.0855,1.2549 3.145,2.9319 0.059,1.6785 -1.2529,3.0866 -2.931,3.1461"
       fill="#009edc"
       id="path127" />
    <path
       d="m 157.9402,327.8324 c -1.7493,0.062 -3.2182,-1.3071 -3.28,-3.0574 -0.0618,-1.7507 1.3068,-3.2177 3.0574,-3.2797 1.7493,-0.061 3.2179,1.3082 3.28,3.057 0.0604,1.7497 -1.307,3.218 -3.0574,3.2801"
       fill="#009edc"
       id="path128" />
    <path
       d="m 148.2443,318.6087 c -1.802,0.065 -3.3152,-1.3458 -3.3781,-3.1484 -0.0635,-1.8034 1.3459,-3.3151 3.1482,-3.3783 1.8034,-0.065 3.3154,1.3447 3.3797,3.1484 0.0632,1.8023 -1.3473,3.3153 -3.1498,3.3783"
       fill="#009edc"
       id="path129" />
    <path
       d="m 139.5212,308.4619 c -1.8556,0.065 -3.4126,-1.3853 -3.477,-3.2409 -0.0655,-1.855 1.385,-3.4123 3.2406,-3.477 1.8553,-0.066 3.4123,1.3853 3.477,3.2409 0.0657,1.8553 -1.385,3.4112 -3.2406,3.477"
       fill="#009edc"
       id="path130" />
    <path
       d="m 131.86,297.4918 c -1.9086,0.068 -3.5084,-1.4245 -3.5765,-3.333 -0.0672,-1.9073 1.4256,-3.5084 3.3339,-3.5771 1.9071,-0.067 3.5087,1.4262 3.5756,3.3345 0.0669,1.9085 -1.4256,3.5087 -3.333,3.5756"
       fill="#009edc"
       id="path131" />
    <path
       d="m 125.3437,285.8068 c -1.9502,0.068 -3.5884,-1.4574 -3.6564,-3.4075 -0.0683,-1.9515 1.457,-3.5878 3.4075,-3.6576 1.9514,-0.068 3.5881,1.4572 3.6564,3.4073 0.0681,1.9513 -1.4572,3.5883 -3.4075,3.6578"
       fill="#009edc"
       id="path132" />
    <path
       d="m 120.0432,273.5223 c -1.9715,0.069 -3.6249,-1.4727 -3.6944,-3.4441 -0.0694,-1.9705 1.4726,-3.6249 3.443,-3.6934 1.9715,-0.07 3.6249,1.4725 3.6944,3.443 0.0694,1.9705 -1.4723,3.6236 -3.443,3.6945"
       fill="#009edc"
       id="path133" />
    <path
       d="m 116.0157,260.7636 c -1.9907,0.069 -3.6615,-1.4874 -3.732,-3.4796 -0.0698,-1.9905 1.4873,-3.6601 3.4792,-3.7309 1.9908,-0.071 3.6615,1.4876 3.7312,3.4781 0.0706,1.9907 -1.4864,3.6615 -3.4784,3.7324"
       fill="#009edc"
       id="path134" />
    <path
       d="m 113.3019,247.6644 c -2.0112,0.071 -3.6995,-1.5015 -3.7693,-3.5136 -0.072,-2.0112 1.5015,-3.6981 3.5127,-3.7703 2.0121,-0.07 3.6995,1.5029 3.7701,3.5148 0.0709,2.0096 -1.5026,3.6979 -3.5135,3.7691"
       fill="#009edc"
       id="path135" />
    <path
       d="m 111.9163,234.3565 c -2.031,0.072 -3.7361,-1.5168 -3.8069,-3.5492 -0.072,-2.031 1.5165,-3.7358 3.5478,-3.8069 2.031,-0.072 3.7361,1.5171 3.8081,3.5481 0.0705,2.0319 -1.518,3.7358 -3.549,3.808"
       fill="#009edc"
       id="path136" />
    <path
       d="m 111.8576,220.9569 c -2.0146,0.071 -3.7057,-1.5055 -3.7766,-3.5202 -0.0709,-2.0147 1.5055,-3.7059 3.5201,-3.7764 2.0146,-0.071 3.7054,1.5051 3.7766,3.52 0.0706,2.0146 -1.5055,3.7056 -3.5201,3.7766"
       fill="#009edc"
       id="path137" />
    <path
       d="m 113.1355,207.6154 c -1.9945,0.071 -3.6689,-1.4902 -3.7386,-3.4847 -0.0706,-1.9944 1.4901,-3.6688 3.4846,-3.7394 1.9944,-0.07 3.6691,1.4899 3.7386,3.4854 0.0709,1.9945 -1.4888,3.6681 -3.4846,3.7387"
       fill="#009edc"
       id="path138" />
    <path
       d="m 115.7533,194.4705 c -1.9741,0.069 -3.6321,-1.4751 -3.7015,-3.4506 -0.0695,-1.974 1.4746,-3.6324 3.45,-3.7017 1.9744,-0.068 3.6315,1.4762 3.7009,3.4503 0.0695,1.9755 -1.4748,3.6326 -3.4494,3.702"
       fill="#009edc"
       id="path139" />
    <path
       d="m 119.6877,181.6588 c -1.9539,0.069 -3.5957,-1.4599 -3.6637,-3.4149 -0.0686,-1.9554 1.4595,-3.5946 3.4149,-3.6641 1.955,-0.068 3.5946,1.4609 3.664,3.4149 0.0681,1.9551 -1.4601,3.5961 -3.4152,3.6641"
       fill="#009edc"
       id="path140" />
    <path
       d="m 124.8978,169.3125 c -1.9199,0.067 -3.5288,-1.4332 -3.5974,-3.3528 -0.0669,-1.9185 1.4335,-3.5292 3.3534,-3.5972 1.9185,-0.067 3.5285,1.4346 3.5957,3.353 0.0683,1.9186 -1.4332,3.5287 -3.3517,3.597"
       fill="#009edc"
       id="path141" />
    <path
       d="m 131.324,157.5551 c -1.8669,0.066 -3.4328,-1.3948 -3.5,-3.2603 -0.0643,-1.8669 1.3955,-3.433 3.2621,-3.4999 1.8669,-0.065 3.4331,1.3955 3.4986,3.261 0.0657,1.8669 -1.3941,3.4339 -3.2607,3.4992"
       fill="#009edc"
       id="path142" />
    <path
       d="m 138.8979,146.5013 c -1.8151,0.063 -3.3367,-1.355 -3.401,-3.1696 -0.0635,-1.8138 1.3549,-3.3369 3.1694,-3.4 1.8139,-0.064 3.3369,1.3549 3.4015,3.1697 0.063,1.8139 -1.3563,3.3355 -3.1699,3.3999"
       fill="#009edc"
       id="path143" />
    <path
       d="m 147.539,136.2605 c -1.762,0.062 -3.2406,-1.3169 -3.3027,-3.0773 -0.062,-1.7631 1.3156,-3.2405 3.0776,-3.3026 1.762,-0.062 3.2406,1.3158 3.3024,3.0776 0.0621,1.762 -1.3156,3.2407 -3.0773,3.3023"
       fill="#009edc"
       id="path144" />
    <path
       d="m 157.1595,126.9354 c -1.6963,0.059 -3.1207,-1.2665 -3.1802,-2.9642 -0.059,-1.6959 1.2679,-3.1191 2.9642,-3.1799 1.696,-0.059 3.1204,1.2679 3.1799,2.9639 0.0595,1.6976 -1.2677,3.1207 -2.9639,3.1802"
       fill="#009edc"
       id="path145" />
    <path
       d="m 167.6638,118.62 c -1.618,0.057 -2.9763,-1.2096 -3.0333,-2.8273 -0.057,-1.6189 1.2092,-2.9764 2.8273,-3.0334 1.6177,-0.057 2.9761,1.2084 3.033,2.8276 0.057,1.6174 -1.2095,2.9764 -2.827,3.0331"
       fill="#009edc"
       id="path146" />
    <path
       d="m 178.9486,111.4015 c -1.5395,0.053 -2.8324,-1.1514 -2.8866,-2.691 -0.0544,-1.5405 1.1501,-2.8324 2.6907,-2.8871 1.5392,-0.054 2.8324,1.1518 2.8868,2.6913 0.0541,1.5404 -1.1503,2.8324 -2.6909,2.8868"
       fill="#009edc"
       id="path147" />
    <path
       d="m 190.9031,105.3571 c -1.4624,0.052 -2.6884,-1.0918 -2.7402,-2.5545 -0.0505,-1.461 1.0919,-2.6869 2.5543,-2.7386 1.4609,-0.052 2.6886,1.0923 2.7402,2.5541 0.0505,1.4613 -1.0922,2.6872 -2.5543,2.739"
       fill="#009edc"
       id="path148" />
    <path
       d="m 203.4067,100.5545 c -1.3711,0.048 -2.5225,-1.025 -2.5718,-2.3965 -0.0482,-1.3711 1.025,-2.5225 2.3972,-2.5704 1.3717,-0.049 2.5231,1.0236 2.571,2.3964 0.048,1.3711 -1.025,2.5226 -2.3964,2.5705"
       fill="#009edc"
       id="path149" />
    <path
       d="m 216.3285,97.0443 c -1.279,0.045 -2.3522,-0.9555 -2.3976,-2.2345 -0.0456,-1.279 0.9553,-2.352 2.2346,-2.3976 1.279,-0.044 2.3519,0.9556 2.3975,2.2346 0.0454,1.2789 -0.9555,2.3519 -2.2345,2.3975"
       fill="#009edc"
       id="path150" />
    <path
       d="m 229.5391,94.8554 c -1.1855,0.042 -2.1816,-0.8861 -2.223,-2.0727 -0.0419,-1.1868 0.8859,-2.1815 2.0716,-2.2235 1.1866,-0.041 2.1824,0.8861 2.2243,2.073 0.0417,1.1855 -0.8875,2.1816 -2.0729,2.2232"
       fill="#009edc"
       id="path151" />
    <path
       d="m 242.9024,93.9957 c -1.093,0.038 -2.0106,-0.8164 -2.05,-1.9109 -0.0374,-1.0933 0.8167,-2.0109 1.9111,-2.0488 1.0934,-0.039 2.0109,0.8163 2.0489,1.9099 0.0391,1.0945 -0.8164,2.0118 -1.91,2.0498"
       fill="#009edc"
       id="path152" />
    <path
       d="m 256.2837,94.4654 c -1.001,0.035 -1.84,-0.7471 -1.8754,-1.7479 -0.0355,-1.0009 0.7469,-1.8413 1.7481,-1.8771 1.0009,-0.035 1.8402,0.7481 1.8754,1.7493 0.0354,1.0008 -0.7469,1.8402 -1.7481,1.8757"
       fill="#009edc"
       id="path153" />
    <path
       d="m 269.5515,96.2762 c -0.9074,0.031 -1.6696,-0.6789 -1.7011,-1.5863 -0.0329,-0.9088 0.6775,-1.6696 1.586,-1.7025 0.9077,-0.032 1.6696,0.6789 1.7016,1.5863 0.0326,0.9084 -0.6774,1.6706 -1.5865,1.7025"
       fill="#009edc"
       id="path154" />
    <path
       d="m 282.5659,99.4195 c -0.8155,0.028 -1.4989,-0.6089 -1.5284,-1.4244 -0.0275,-0.815 0.6094,-1.499 1.4247,-1.5278 0.8152,-0.028 1.4989,0.6094 1.5278,1.4243 0.029,0.8155 -0.6091,1.5003 -1.4241,1.5279"
       fill="#009edc"
       id="path155" />
    <path
       d="m 295.1923,103.8653 c -0.7331,0.027 -1.3473,-0.547 -1.374,-1.2801 -0.0249,-0.7331 0.5474,-1.3484 1.2804,-1.3739 0.7331,-0.026 1.3488,0.5473 1.374,1.2804 0.0266,0.733 -0.5474,1.3473 -1.2804,1.3736"
       fill="#009edc"
       id="path156" />
    <path
       d="m 307.3022,109.5644 c -0.6545,0.024 -1.2045,-0.4895 -1.2271,-1.1441 -0.023,-0.6548 0.4889,-1.2033 1.144,-1.2275 0.6545,-0.023 1.2045,0.4897 1.2271,1.1442 0.0227,0.6545 -0.4892,1.2043 -1.144,1.2274"
       fill="#009edc"
       id="path157" />
    <path
       d="m 318.7746,116.4528 c -0.576,0.02 -1.0602,-0.4311 -1.0806,-1.0076 -0.0199,-0.5763 0.4311,-1.0605 1.0074,-1.0804 0.5766,-0.02 1.0605,0.4309 1.0806,1.0069 0.0204,0.5766 -0.4309,1.0605 -1.0074,1.0811"
       fill="#009edc"
       id="path158" />
    <path
       d="m 327.88,121.5799 c -0.4995,0.018 -0.919,-0.373 -0.9354,-0.8719 -0.0176,-0.4981 0.373,-0.9179 0.8722,-0.9355 0.4978,-0.017 0.9176,0.3728 0.934,0.872 0.0187,0.4994 -0.3716,0.9175 -0.8708,0.9354"
       fill="#009edc"
       id="path159" />
    <path
       d="m 343.7101,340.465 c -0.5372,0.02 -0.9885,-0.4005 -1.0075,-0.9392 -0.0189,-0.5371 0.402,-0.9881 0.9389,-1.0072 0.5374,-0.019 0.9884,0.4007 1.0074,0.9392 0.019,0.5369 -0.4019,0.9885 -0.9388,1.0072"
       fill="#009edc"
       id="path160" />
    <path
       d="m 333.2414,348.8273 c -0.6066,0.021 -1.116,-0.4539 -1.1375,-1.0617 -0.0215,-0.6069 0.4524,-1.116 1.0604,-1.1375 0.6069,-0.022 1.116,0.4535 1.1376,1.0616 0.0215,0.6066 -0.4536,1.1145 -1.0605,1.1376"
       fill="#009edc"
       id="path161" />
    <path
       d="m 322.0746,356.2279 c -0.676,0.024 -1.2435,-0.5054 -1.2676,-1.1829 -0.0238,-0.6763 0.5057,-1.2437 1.1818,-1.2665 0.6763,-0.026 1.2449,0.5043 1.2687,1.1803 0.023,0.6775 -0.5054,1.245 -1.1829,1.2691"
       fill="#009edc"
       id="path162" />
    <path
       d="m 310.2947,362.6056 c -0.7455,0.026 -1.3711,-0.5566 -1.3978,-1.3034 -0.0266,-0.7458 0.5562,-1.3711 1.3034,-1.3992 0.7455,-0.025 1.3726,0.559 1.3975,1.3045 0.0266,0.7455 -0.557,1.3714 -1.3031,1.3981"
       fill="#009edc"
       id="path163" />
    <path
       d="m 297.9938,367.9063 c -0.8207,0.029 -1.5092,-0.6114 -1.5387,-1.433 -0.0289,-0.8205 0.6132,-1.509 1.4335,-1.5385 0.8201,-0.027 1.5092,0.6145 1.5381,1.4335 0.0292,0.8215 -0.6129,1.5106 -1.4329,1.538"
       fill="#009edc"
       id="path164" />
    <path
       d="m 285.2676,372.0855 c -0.9025,0.032 -1.6594,-0.6736 -1.6925,-1.5761 -0.0315,-0.9034 0.6752,-1.6619 1.5774,-1.6934 0.9037,-0.03 1.6606,0.6749 1.6926,1.5775 0.0315,0.9033 -0.6749,1.6619 -1.5775,1.692"
       fill="#009edc"
       id="path165" />
    <path
       d="m 272.2229,375.1109 c -0.9851,0.034 -1.8125,-0.7356 -1.8465,-1.7201 -0.0346,-0.987 0.7364,-1.8125 1.7209,-1.8465 0.9845,-0.036 1.8113,0.7353 1.8465,1.7201 0.0346,0.9845 -0.7353,1.8125 -1.7209,1.8465"
       fill="#009edc"
       id="path166" />
    <path
       d="m 258.9613,376.9647 c -1.0681,0.038 -1.9642,-0.7973 -2.001,-1.8654 -0.038,-1.067 0.7962,-1.963 1.8643,-2.001 1.0681,-0.038 1.9642,0.7977 2.0021,1.8655 0.0366,1.0681 -0.799,1.9641 -1.8654,2.0009"
       fill="#009edc"
       id="path167" />
    <path
       d="m 245.5851,377.6462 c -1.15,0.04 -2.1143,-0.8595 -2.156,-2.0083 -0.0394,-1.1501 0.8595,-2.1161 2.0095,-2.1561 1.15,-0.04 2.1158,0.8589 2.1552,2.0095 0.0413,1.15 -0.8587,2.1155 -2.0087,2.1549"
       fill="#009edc"
       id="path168" />
    <path
       d="m 232.2033,377.1547 c -1.2322,0.043 -2.2663,-0.921 -2.3102,-2.1521 -0.0431,-1.234 0.921,-2.2674 2.1535,-2.3105 1.2325,-0.043 2.266,0.92 2.3105,2.1526 0.0431,1.232 -0.9215,2.2668 -2.1538,2.31"
       fill="#009edc"
       id="path169" />
    <path
       d="m 218.9165,375.4788 c -1.3156,0.047 -2.4177,-0.9823 -2.4644,-2.2966 -0.0457,-1.3144 0.9819,-2.4177 2.2977,-2.4645 1.3145,-0.047 2.4177,0.982 2.4631,2.2978 0.047,1.3142 -0.982,2.4177 -2.2964,2.4633"
       fill="#009edc"
       id="path170" />
    <path
       d="m 205.8346,372.6241 c -1.3963,0.049 -2.5693,-1.043 -2.6189,-2.441 -0.0491,-1.3966 1.0431,-2.569 2.4406,-2.6186 1.3966,-0.049 2.5696,1.044 2.6189,2.4419 0.0491,1.3968 -1.044,2.5683 -2.4406,2.6177"
       fill="#009edc"
       id="path171" />
    <path
       d="m 193.0617,368.6099 c -1.4749,0.052 -2.7125,-1.101 -2.7641,-2.5758 -0.0518,-1.4735 1.1021,-2.7122 2.577,-2.7641 1.4737,-0.052 2.7111,1.102 2.7632,2.5759 0.0516,1.4751 -1.1009,2.712 -2.5761,2.764"
       fill="#009edc"
       id="path172" />
    <path
       d="m 180.7004,363.4718 c -1.5429,0.054 -2.8401,-1.1525 -2.8939,-2.6971 -0.0547,-1.5429 1.154,-2.8402 2.698,-2.8945 1.5435,-0.054 2.8389,1.1539 2.8933,2.6986 0.0542,1.5435 -1.1528,2.8389 -2.6974,2.893"
       fill="#009edc"
       id="path173" />
    <path
       d="m 168.8487,357.2537 c -1.6129,0.056 -2.9676,-1.2061 -3.0245,-2.8184 -0.057,-1.614 1.2055,-2.9679 2.8184,-3.0246 1.6141,-0.057 2.9676,1.2056 3.0246,2.8185 0.057,1.614 -1.2061,2.9675 -2.8185,3.0245"
       fill="#009edc"
       id="path174" />
    <path
       d="m 157.5943,350.007 c -1.6835,0.06 -3.0951,-1.2575 -3.1544,-2.9395 -0.0581,-1.6835 1.2575,-3.0955 2.9398,-3.1551 1.6835,-0.059 3.0952,1.2579 3.1547,2.9399 0.0593,1.6835 -1.2566,3.0954 -2.9401,3.1547"
       fill="#009edc"
       id="path175" />
    <path
       d="m 147.0262,341.7929 c -1.7467,0.062 -3.2131,-1.3042 -3.2749,-3.0508 -0.0618,-1.7481 1.306,-3.2128 3.0524,-3.2746 1.7464,-0.062 3.2131,1.3042 3.2746,3.0509 0.0609,1.7479 -1.3057,3.214 -3.0521,3.2745"
       fill="#009edc"
       id="path176" />
    <path
       d="m 137.2246,332.6794 c -1.7935,0.063 -3.2984,-1.3397 -3.3619,-3.1332 -0.0615,-1.7923 1.3399,-3.2989 3.1334,-3.3619 1.7935,-0.062 3.2987,1.3411 3.3619,3.1346 0.0632,1.7935 -1.34,3.2975 -3.1334,3.3605"
       fill="#009edc"
       id="path177" />
    <path
       d="m 128.2674,322.736 c -1.8406,0.065 -3.3835,-1.3751 -3.4495,-3.2152 -0.0646,-1.839 1.3751,-3.3833 3.2139,-3.448 1.8417,-0.064 3.3851,1.3737 3.4495,3.2143 0.0646,1.8399 -1.374,3.3834 -3.2139,3.4489"
       fill="#009edc"
       id="path178" />
    <path
       d="m 120.2246,312.0385 c -1.8856,0.067 -3.4693,-1.409 -3.5351,-3.2946 -0.0669,-1.887 1.408,-3.471 3.295,-3.5365 1.8871,-0.067 3.4694,1.4091 3.5365,3.295 0.0655,1.887 -1.4093,3.469 -3.2964,3.5361"
       fill="#009edc"
       id="path179" />
    <path
       d="m 113.1647,300.6711 c -1.9338,0.068 -3.5553,-1.4445 -3.6236,-3.3772 -0.0671,-1.9324 1.4449,-3.5555 3.3772,-3.6235 1.9327,-0.068 3.5552,1.4444 3.6236,3.3772 0.068,1.9323 -1.4449,3.5555 -3.3772,3.6235"
       fill="#009edc"
       id="path180" />
    <path
       d="m 107.1456,288.7185 c -1.9576,0.07 -3.6006,-1.4623 -3.67,-3.42 -0.0684,-1.9578 1.4621,-3.6012 3.4211,-3.6691 1.9579,-0.07 3.6008,1.4621 3.6694,3.42 0.0695,1.9576 -1.4626,3.6011 -3.4205,3.6691"
       fill="#009edc"
       id="path181" />
    <path
       d="m 102.2198,276.2769 c -1.9755,0.07 -3.6334,-1.4759 -3.7032,-3.4499 -0.0694,-1.9772 1.4763,-3.6342 3.4518,-3.7046 1.9754,-0.069 3.6334,1.4759 3.7029,3.4514 0.0694,1.9766 -1.476,3.6338 -3.4515,3.7031"
       fill="#009edc"
       id="path182" />
    <path
       d="m 98.4276,263.4445 c -1.993,0.071 -3.6666,-1.489 -3.736,-3.4834 -0.0709,-1.9931 1.4884,-3.6649 3.482,-3.7362 1.9931,-0.07 3.6664,1.4903 3.7358,3.4836 0.0706,1.993 -1.4887,3.6652 -3.4818,3.736"
       fill="#009edc"
       id="path183" />
    <path
       d="m 95.7976,250.3267 c -2.0111,0.071 -3.6995,-1.5028 -3.7706,-3.5136 -0.0706,-2.012 1.5029,-3.6995 3.5135,-3.7702 2.0126,-0.071 3.6995,1.5028 3.7704,3.5137 0.0706,2.0109 -1.5029,3.6981 -3.5133,3.7701"
       fill="#009edc"
       id="path184" />
    <path
       d="m 94.3398,237.0236 c -2.0285,0.071 -3.7324,-1.5153 -3.803,-3.5449 -0.0711,-2.0285 1.5151,-3.7324 3.545,-3.803 2.0285,-0.071 3.7321,1.5151 3.803,3.5436 0.0709,2.03 -1.5165,3.7324 -3.545,3.8043"
       fill="#009edc"
       id="path185" />
    <path
       d="m 94.0535,223.6263 c -2.02,0.071 -3.7134,-1.5089 -3.7854,-3.5286 -0.0712,-2.0199 1.5089,-3.7134 3.5274,-3.7854 2.0211,-0.071 3.7145,1.509 3.7865,3.5288 0.0709,2.0198 -1.5091,3.7146 -3.5285,3.7852"
       fill="#009edc"
       id="path186" />
    <path
       d="m 94.9444,210.2536 c -2.0018,0.071 -3.6816,-1.495 -3.7525,-3.4972 -0.0694,-2.0018 1.495,-3.6819 3.4971,-3.7513 2.0021,-0.071 3.6819,1.4956 3.7525,3.496 0.0709,2.002 -1.495,3.6818 -3.4971,3.7525"
       fill="#009edc"
       id="path187" />
    <path
       d="m 97.0191,197.012 c -1.984,0.07 -3.6485,-1.4824 -3.7185,-3.467 -0.0703,-1.9828 1.4817,-3.6487 3.4659,-3.7185 1.9843,-0.07 3.6502,1.4825 3.7196,3.467 0.0695,1.9832 -1.4825,3.6491 -3.467,3.7185"
       fill="#009edc"
       id="path188" />
    <path
       d="m 100.2684,184.0096 c -1.9666,0.069 -3.6161,-1.4687 -3.6856,-3.4353 -0.0694,-1.9664 1.4689,-3.6173 3.4353,-3.6854 1.9667,-0.069 3.6173,1.4684 3.6856,3.435 0.0695,1.967 -1.4686,3.6159 -3.4353,3.6857"
       fill="#009edc"
       id="path189" />
    <path
       d="m 104.6667,171.3509 c -1.9488,0.068 -3.5844,-1.4562 -3.6527,-3.405 -0.0681,-1.9489 1.4558,-3.5841 3.4049,-3.6527 1.9477,-0.068 3.5833,1.4561 3.6513,3.405 0.0695,1.9491 -1.4544,3.5844 -3.4035,3.6527"
       fill="#009edc"
       id="path190" />
    <path
       d="m 110.1758,159.1353 c -1.91,0.067 -3.511,-1.4256 -3.5793,-3.3357 -0.0672,-1.9093 1.427,-3.5109 3.3367,-3.5789 1.9085,-0.067 3.5112,1.427 3.5781,3.3356 0.0669,1.9094 -1.4258,3.5121 -3.3355,3.579"
       fill="#009edc"
       id="path191" />
    <path
       d="m 116.7482,147.4605 c -1.8629,0.066 -3.4265,-1.3916 -3.492,-3.2545 -0.0657,-1.864 1.3915,-3.4276 3.2556,-3.4922 1.8629,-0.066 3.4254,1.3915 3.4923,3.2547 0.0646,1.8629 -1.393,3.4262 -3.2559,3.492"
       fill="#009edc"
       id="path192" />
    <path
       d="m 124.33,136.4119 c -1.8164,0.063 -3.342,-1.3575 -3.4049,-3.1748 -0.0647,-1.8164 1.3558,-3.3418 3.1734,-3.405 1.8175,-0.064 3.342,1.3574 3.4064,3.1737 0.0632,1.8176 -1.359,3.3415 -3.1749,3.4061"
       fill="#009edc"
       id="path193" />
    <path
       d="m 132.8575,126.0761 c -1.7711,0.062 -3.257,-1.322 -3.3191,-3.094 -0.0621,-1.7705 1.3221,-3.2555 3.094,-3.3191 1.7706,-0.062 3.2556,1.3235 3.3191,3.094 0.0618,1.7712 -1.3235,3.2571 -3.094,3.3191"
       fill="#009edc"
       id="path194" />
    <path
       d="m 142.2623,116.5334 c -1.7186,0.061 -3.1609,-1.2841 -3.2216,-3.003 -0.0606,-1.7187 1.2841,-3.1611 3.003,-3.2216 1.719,-0.061 3.161,1.2841 3.2216,3.0029 0.061,1.719 -1.2841,3.161 -3.003,3.2217"
       fill="#009edc"
       id="path195" />
    <path
       d="m 152.4721,107.8583 c -1.6489,0.058 -3.0345,-1.232 -3.0926,-2.8826 -0.0578,-1.6496 1.2325,-3.0351 2.8831,-3.0929 1.6507,-0.057 3.0345,1.2334 3.0926,2.8828 0.0584,1.6506 -1.2322,3.0345 -2.8831,3.0927"
       fill="#009edc"
       id="path196" />
    <path
       d="m 163.4099,100.1213 c -1.5812,0.055 -2.9081,-1.1803 -2.9636,-2.7615 -0.0562,-1.5812 1.1814,-2.907 2.7623,-2.964 1.5801,-0.055 2.9072,1.1819 2.9628,2.7631 0.0558,1.5797 -1.1818,2.9072 -2.7615,2.9624"
       fill="#009edc"
       id="path197" />
    <path
       d="m 174.9897,93.3868 c -1.5114,0.053 -2.7805,-1.1299 -2.8335,-2.6416 -0.053,-1.5117 1.1285,-2.7805 2.6413,-2.8339 1.5117,-0.053 2.7805,1.13 2.8338,2.6416 0.053,1.5118 -1.1302,2.7809 -2.6416,2.8339"
       fill="#009edc"
       id="path198" />
    <path
       d="m 187.124,87.7116 c -1.4423,0.05 -2.6533,-1.0781 -2.7037,-2.5203 -0.0505,-1.4409 1.0769,-2.6517 2.5191,-2.7023 1.4432,-0.051 2.653,1.0769 2.7034,2.5189 0.0505,1.4425 -1.0768,2.6521 -2.5188,2.7037"
       fill="#009edc"
       id="path199" />
    <path
       d="m 199.7152,83.1435 c -1.3601,0.048 -2.5016,-1.0165 -2.5495,-2.376 -0.0479,-1.3601 1.0165,-2.5017 2.3763,-2.5495 1.3598,-0.048 2.5013,1.016 2.5492,2.376 0.0479,1.3601 -1.016,2.5015 -2.376,2.5495"
       fill="#009edc"
       id="path200" />
    <path
       d="m 212.6607,79.721 c -1.2778,0.046 -2.3507,-0.9546 -2.3964,-2.2334 -0.0445,-1.2779 0.9556,-2.3512 2.2346,-2.3965 1.2778,-0.044 2.3496,0.9556 2.395,2.2334 0.0456,1.2791 -0.9542,2.352 -2.2332,2.3965"
       fill="#009edc"
       id="path201" />
    <path
       d="m 225.8611,77.4654 c -1.1968,0.041 -2.2005,-0.8951 -2.2419,-2.0906 -0.0431,-1.197 0.8935,-2.2004 2.0888,-2.2424 1.1971,-0.041 2.202,0.8934 2.2437,2.0906 0.0416,1.1959 -0.8935,2.2005 -2.0906,2.2424"
       fill="#009edc"
       id="path202" />
    <path
       d="m 239.2077,76.3825 c -1.1145,0.04 -2.05,-0.8324 -2.0891,-1.9474 -0.0391,-1.1134 0.8331,-2.0499 1.9477,-2.0891 1.1149,-0.039 2.05,0.8325 2.0894,1.9475 0.0389,1.1145 -0.8331,2.05 -1.948,2.089"
       fill="#009edc"
       id="path203" />
    <path
       d="m 252.5983,76.471 c -1.0326,0.036 -1.898,-0.771 -1.9349,-1.8036 -0.0366,-1.0338 0.771,-1.8995 1.8037,-1.9361 1.0326,-0.037 1.8995,0.771 1.936,1.8048 0.0366,1.0327 -0.7718,1.8981 -1.8048,1.9349"
       fill="#009edc"
       id="path204" />
    <path
       d="m 265.9317,77.7413 c -0.9505,0.033 -1.7493,-0.7105 -1.7822,-1.6611 -0.034,-0.9505 0.7104,-1.7491 1.6605,-1.7834 0.9505,-0.033 1.7496,0.7104 1.7825,1.6623 0.034,0.9502 -0.7104,1.7492 -1.6608,1.7822"
       fill="#009edc"
       id="path205" />
    <path
       d="m 279.0957,80.1934 c -0.8685,0.031 -1.599,-0.6494 -1.6293,-1.5178 -0.0301,-0.8693 0.65,-1.5991 1.5194,-1.6291 0.8679,-0.03 1.5976,0.6498 1.6279,1.5179 0.03,0.8696 -0.65,1.5988 -1.518,1.629"
       fill="#009edc"
       id="path206" />
    <path
       d="m 291.9854,83.8139 c -0.7871,0.027 -1.4479,-0.5879 -1.476,-1.3755 -0.028,-0.7885 0.5877,-1.4481 1.3751,-1.4761 0.7886,-0.028 1.4485,0.5876 1.4763,1.375 0.0278,0.7875 -0.5879,1.4485 -1.3754,1.4766"
       fill="#009edc"
       id="path207" />
    <path
       d="m 304.4996,88.5713 c -0.7195,0.025 -1.3221,-0.536 -1.3476,-1.2549 -0.0241,-0.7194 0.5371,-1.3221 1.2549,-1.3476 0.7191,-0.024 1.322,0.5371 1.3476,1.2566 0.0249,0.7177 -0.5375,1.3203 -1.2549,1.3459"
       fill="#009edc"
       id="path208" />
    <path
       d="m 316.5366,94.426 c -0.65,0.023 -1.1945,-0.4854 -1.2172,-1.135 -0.023,-0.6497 0.4842,-1.1944 1.1347,-1.2172 0.6486,-0.023 1.1934,0.4852 1.2161,1.135 0.0238,0.6497 -0.4842,1.1945 -1.1336,1.2172"
       fill="#009edc"
       id="path209" />
    <path
       d="m 328.0036,101.3255 c -0.5805,0.02 -1.0681,-0.4334 -1.0885,-1.0138 -0.0201,-0.581 0.4337,-1.068 1.0137,-1.0881 0.5813,-0.02 1.0678,0.4333 1.0882,1.0137 0.0201,0.5814 -0.4334,1.0678 -1.0134,1.0882"
       fill="#009edc"
       id="path210" />
    <path
       d="m 338.8161,109.2146 c -0.5106,0.018 -0.94,-0.3815 -0.9581,-0.8935 -0.0173,-0.5116 0.3821,-0.9399 0.894,-0.9581 0.5105,-0.018 0.94,0.3821 0.9578,0.8926 0.0176,0.5119 -0.3818,0.9403 -0.8937,0.959"
       fill="#009edc"
       id="path211" />
    <path
       d="m 348.8898,118.0278 c -0.4615,0.016 -0.8495,-0.3441 -0.866,-0.8065 -0.0164,-0.4615 0.345,-0.8495 0.8065,-0.8645 0.4612,-0.016 0.8493,0.3449 0.8657,0.8064 0.0153,0.4611 -0.345,0.8479 -0.8062,0.8646"
       fill="#009edc"
       id="path212" />
    <path
       d="m 355.28,352.0326 c -0.5321,0.02 -0.9797,-0.3968 -0.9987,-0.9289 -0.0176,-0.5335 0.3986,-0.9808 0.9306,-0.9986 0.5335,-0.019 0.9794,0.3971 0.9984,0.9306 0.019,0.5318 -0.398,0.9779 -0.9303,0.9969"
       fill="#009edc"
       id="path213" />
    <path
       d="m 344.904,360.5081 c -0.595,0.022 -1.0944,-0.4447 -1.116,-1.0391 -0.0198,-0.595 0.4451,-1.0944 1.0406,-1.116 0.595,-0.021 1.0945,0.4438 1.1146,1.0392 0.0213,0.5964 -0.4436,1.0945 -1.0392,1.1159"
       fill="#009edc"
       id="path214" />
    <path
       d="m 333.8846,368.1275 c -0.6585,0.024 -1.2106,-0.4916 -1.2336,-1.1489 -0.0227,-0.6586 0.4918,-1.2096 1.1503,-1.2338 0.6571,-0.022 1.2095,0.4919 1.2322,1.149 0.023,0.6585 -0.4904,1.2096 -1.1489,1.2337"
       fill="#009edc"
       id="path215" />
    <path
       d="m 322.2906,374.8382 c -0.7205,0.026 -1.326,-0.5386 -1.3509,-1.2593 -0.0256,-0.7187 0.5383,-1.3242 1.2588,-1.3494 0.7203,-0.025 1.3258,0.5371 1.351,1.2586 0.0252,0.7205 -0.5383,1.3246 -1.2589,1.3501"
       fill="#009edc"
       id="path216" />
    <path
       d="m 310.1941,380.5948 c -0.7835,0.026 -1.4406,-0.5851 -1.4672,-1.3689 -0.0278,-0.782 0.585,-1.4405 1.3677,-1.4672 0.7835,-0.028 1.4405,0.5851 1.4683,1.3686 0.0267,0.7823 -0.585,1.4409 -1.3688,1.4675"
       fill="#009edc"
       id="path217" />
    <path
       d="m 297.6743,385.3564 c -0.8569,0.029 -1.5749,-0.6406 -1.605,-1.4965 -0.0303,-0.8554 0.6395,-1.5745 1.4967,-1.6049 0.8555,-0.031 1.5744,0.6395 1.605,1.495 0.03,0.857 -0.6409,1.5761 -1.4967,1.6064"
       fill="#009edc"
       id="path218" />
    <path
       d="m 284.8115,389.0914 c -0.93,0.032 -1.7112,-0.6951 -1.7438,-1.6254 -0.0332,-0.9315 0.6933,-1.7124 1.6251,-1.745 0.9314,-0.032 1.7112,0.695 1.7441,1.6265 0.0326,0.93 -0.6953,1.7109 -1.6254,1.7439"
       fill="#009edc"
       id="path219" />
    <path
       d="m 271.6919,391.7775 c -1.0046,0.035 -1.8476,-0.7509 -1.8847,-1.7556 -0.0349,-1.0051 0.752,-1.8495 1.7558,-1.8835 1.0063,-0.035 1.8493,0.7509 1.8844,1.7555 0.0355,1.006 -0.7506,1.849 -1.7555,1.8836"
       fill="#009edc"
       id="path220" />
    <path
       d="m 258.3994,393.4065 c -1.0791,0.036 -1.9856,-0.8075 -2.0236,-1.8862 -0.038,-1.0802 0.8064,-1.9853 1.8859,-2.023 1.0791,-0.038 1.9856,0.8062 2.0236,1.8856 0.038,1.0794 -0.8064,1.9857 -1.8859,2.0236"
       fill="#009edc"
       id="path221" />
    <path
       d="m 245.0182,393.9769 c -1.154,0.04 -2.122,-0.8621 -2.1625,-2.016 -0.0406,-1.1526 0.862,-2.1209 2.016,-2.1626 1.1525,-0.039 2.1208,0.8632 2.1614,2.016 0.0399,1.1537 -0.8609,2.122 -2.0149,2.1626"
       fill="#009edc"
       id="path222" />
    <path
       d="m 231.635,393.4893 c -1.2271,0.043 -2.2587,-0.9176 -2.3015,-2.145 -0.043,-1.2285 0.9176,-2.2586 2.145,-2.3025 1.2286,-0.043 2.2595,0.9171 2.3026,2.1458 0.0428,1.227 -0.9176,2.2587 -2.1461,2.3017"
       fill="#009edc"
       id="path223" />
    <path
       d="m 218.3326,391.9328 c -1.3017,0.046 -2.395,-0.9734 -2.4407,-2.2748 -0.0453,-1.302 0.972,-2.3956 2.2751,-2.4409 1.302,-0.047 2.395,0.9719 2.4407,2.2739 0.0453,1.3043 -0.9718,2.3965 -2.2751,2.4418"
       fill="#009edc"
       id="path224" />
    <path
       d="m 205.2011,389.311 c -1.3765,0.048 -2.5319,-1.0275 -2.5813,-2.4041 -0.0479,-1.3773 1.0287,-2.5324 2.4052,-2.5803 1.3777,-0.048 2.5331,1.0272 2.581,2.4049 0.0479,1.3765 -1.029,2.5316 -2.4049,2.5795"
       fill="#009edc"
       id="path225" />
    <path
       d="m 192.3247,385.6375 c -1.4494,0.052 -2.6666,-1.0812 -2.7184,-2.5338 -0.0505,-1.4496 1.0845,-2.6665 2.5339,-2.717 1.4499,-0.051 2.6682,1.0829 2.7187,2.5339 0.0507,1.4497 -1.0832,2.6667 -2.5342,2.7169"
       fill="#009edc"
       id="path226" />
    <path
       d="m 179.789,380.9381 c -1.5128,0.054 -2.783,-1.1302 -2.836,-2.6431 -0.053,-1.5128 1.1299,-2.783 2.6424,-2.8361 1.5132,-0.053 2.7831,1.1311 2.8367,2.6442 0.053,1.5129 -1.1302,2.782 -2.6431,2.835"
       fill="#009edc"
       id="path227" />
    <path
       d="m 167.6735,375.2441 c -1.5761,0.056 -2.8982,-1.1766 -2.9534,-2.7527 -0.0562,-1.5761 1.1763,-2.8979 2.7524,-2.9537 1.5761,-0.056 2.8981,1.1778 2.954,2.7527 0.0555,1.5761 -1.177,2.8996 -2.753,2.9537"
       fill="#009edc"
       id="path228" />
    <path
       d="m 156.0551,368.5977 c -1.6378,0.058 -3.0129,-1.2234 -3.071,-2.8628 -0.0579,-1.638 1.2245,-3.012 2.8627,-3.0701 1.6378,-0.058 3.0129,1.2237 3.0713,2.8615 0.0581,1.6396 -1.2248,3.0144 -2.863,3.0714"
       fill="#009edc"
       id="path229" />
    <path
       d="m 145.0051,361.0424 c -1.7014,0.06 -3.1283,-1.2712 -3.1876,-2.9724 -0.0606,-1.6998 1.2702,-3.1279 2.9713,-3.1888 1.7014,-0.059 3.1283,1.2716 3.189,2.9729 0.0595,1.701 -1.2716,3.128 -2.9727,3.1883"
       fill="#009edc"
       id="path230" />
    <path
       d="m 134.5934,352.6298 c -1.7543,0.062 -3.2266,-1.3104 -3.2887,-3.0659 -0.0621,-1.7533 1.311,-3.2269 3.0651,-3.2876 1.7544,-0.062 3.2267,1.3105 3.2885,3.0637 0.0618,1.7558 -1.3108,3.2278 -3.0649,3.2898"
       fill="#009edc"
       id="path231" />
    <path
       d="m 124.8859,343.4139 c -1.7974,0.063 -3.3049,-1.3425 -3.3684,-3.1385 -0.0621,-1.7961 1.3425,-3.305 3.1397,-3.367 1.7957,-0.063 3.3037,1.3425 3.367,3.1384 0.0632,1.797 -1.3422,3.3036 -3.1383,3.3671"
       fill="#009edc"
       id="path232" />
    <path
       d="m 115.9435,333.4546 c -1.8389,0.065 -3.3809,-1.3729 -3.4464,-3.212 -0.0646,-1.8385 1.3737,-3.3819 3.2114,-3.4463 1.8402,-0.063 3.382,1.374 3.4466,3.2114 0.0644,1.8405 -1.3725,3.3826 -3.2116,3.4469"
       fill="#009edc"
       id="path233" />
    <path
       d="m 107.8253,322.8137 c -1.8805,0.066 -3.458,-1.4041 -3.5251,-3.286 -0.0655,-1.8793 1.4057,-3.4579 3.2862,-3.5248 1.8793,-0.065 3.4579,1.4065 3.5248,3.2859 0.0661,1.8808 -1.4054,3.458 -3.2859,3.5249"
       fill="#009edc"
       id="path234" />
    <path
       d="m 100.5856,311.5573 c -1.9224,0.067 -3.5353,-1.4369 -3.6034,-3.3579 -0.0669,-1.9236 1.4358,-3.5365 3.3582,-3.6046 1.9233,-0.067 3.5363,1.4369 3.6034,3.3579 0.0681,1.9236 -1.436,3.5366 -3.3582,3.6046"
       fill="#009edc"
       id="path235" />
    <path
       d="m 94.274,299.7552 c -1.9525,0.07 -3.5903,-1.457 -3.6589,-3.4098 -0.0681,-1.9527 1.4587,-3.5906 3.41,-3.6601 1.9531,-0.067 3.591,1.4596 3.659,3.4098 0.0686,1.9528 -1.4584,3.5907 -3.4101,3.6601"
       fill="#009edc"
       id="path236" />
    <path
       d="m 88.935,287.4829 c -1.9693,0.069 -3.6202,-1.4698 -3.6896,-3.4376 -0.0695,-1.968 1.47,-3.6202 3.439,-3.6895 1.9681,-0.068 3.6201,1.47 3.6881,3.4377 0.0695,1.9694 -1.4697,3.62 -3.4375,3.6894"
       fill="#009edc"
       id="path237" />
    <path
       d="m 84.6039,274.8206 c -1.9845,0.069 -3.649,-1.4826 -3.7185,-3.4665 -0.0706,-1.9832 1.4814,-3.6491 3.4654,-3.7198 1.9845,-0.068 3.6501,1.4824 3.7196,3.4681 0.0697,1.9831 -1.4825,3.6476 -3.4665,3.7182"
       fill="#009edc"
       id="path238" />
    <path
       d="m 81.3109,261.8521 c -2.001,0.071 -3.6794,-1.4936 -3.7488,-3.4946 -0.0706,-2.0007 1.4938,-3.6791 3.4945,-3.7485 1.9996,-0.071 3.678,1.4937 3.7488,3.4945 0.0706,1.9996 -1.4938,3.678 -3.4945,3.7486"
       fill="#009edc"
       id="path239" />
    <path
       d="m 79.071,248.659 c -2.0169,0.072 -3.708,-1.5051 -3.7789,-3.5223 -0.0706,-2.016 1.5055,-3.7085 3.5223,-3.7791 2.016,-0.071 3.7086,1.5066 3.7792,3.5226 0.0708,2.016 -1.5066,3.708 -3.5226,3.7788"
       fill="#009edc"
       id="path240" />
    <path
       d="m 77.8906,235.3277 c -2.0324,0.072 -3.7386,-1.5177 -3.8095,-3.5502 -0.072,-2.0323 1.518,-3.7385 3.5504,-3.8094 2.0322,-0.071 3.7372,1.5179 3.8095,3.5504 0.072,2.0336 -1.5179,3.7385 -3.5504,3.8092"
       fill="#009edc"
       id="path241" />
    <path
       d="m 77.7648,221.9285 c -2.0175,0.071 -3.7109,-1.5076 -3.7815,-3.525 -0.0708,-2.018 1.5067,-3.712 3.5246,-3.7826 2.0186,-0.071 3.7109,1.5075 3.7829,3.5249 0.0711,2.0185 -1.5078,3.7122 -3.526,3.7827"
       fill="#009edc"
       id="path242" />
    <path
       d="m 78.7036,208.5565 c -2.0021,0.071 -3.6819,-1.495 -3.7525,-3.4971 -0.0697,-2.0019 1.495,-3.682 3.4968,-3.7526 2.0021,-0.071 3.6819,1.4953 3.7525,3.4972 0.0712,2.0021 -1.495,3.6819 -3.4968,3.7525"
       fill="#009edc"
       id="path243" />
    <path
       d="m 80.7102,195.3048 c -1.9868,0.07 -3.6527,-1.484 -3.7221,-3.4693 -0.0695,-1.9867 1.4839,-3.6526 3.4696,-3.7222 1.9854,-0.071 3.6513,1.4825 3.7219,3.4695 0.0694,1.9855 -1.4837,3.6514 -3.4694,3.722"
       fill="#009edc"
       id="path244" />
    <path
       d="m 83.7779,182.2586 c -1.9704,0.069 -3.6235,-1.4726 -3.693,-3.4415 -0.0694,-1.9705 1.4726,-3.6237 3.4416,-3.693 1.9703,-0.07 3.6235,1.4723 3.6929,3.4429 0.0695,1.969 -1.4709,3.6222 -3.4415,3.6916"
       fill="#009edc"
       id="path245" />
    <path
       d="m 87.8881,169.5033 c -1.9542,0.069 -3.5946,-1.4602 -3.6626,-3.4141 -0.0683,-1.9539 1.4598,-3.5929 3.4135,-3.6626 1.9542,-0.068 3.5946,1.4598 3.6629,3.4152 0.068,1.9525 -1.4599,3.5929 -3.4138,3.6615"
       fill="#009edc"
       id="path246" />
    <path
       d="m 93.0126,157.1215 c -1.9273,0.068 -3.5464,-1.4397 -3.6133,-3.3681 -0.0681,-1.9275 1.4394,-3.5453 3.3684,-3.6137 1.9275,-0.068 3.545,1.4412 3.6133,3.3682 0.0672,1.929 -1.4408,3.5456 -3.3684,3.6136"
       fill="#009edc"
       id="path247" />
    <path
       d="m 99.115,145.1933 c -1.887,0.067 -3.4693,-1.4093 -3.5351,-3.2949 -0.0669,-1.8871 1.408,-3.4697 3.295,-3.5354 1.8856,-0.067 3.4694,1.408 3.5351,3.295 0.0669,1.8859 -1.4094,3.4693 -3.295,3.5353"
       fill="#009edc"
       id="path248" />
    <path
       d="m 106.1517,133.7933 c -1.8442,0.064 -3.3925,-1.3777 -3.4568,-3.2228 -0.0655,-1.8439 1.3776,-3.3922 3.2216,-3.4568 1.8439,-0.064 3.3925,1.3776 3.4568,3.2229 0.0655,1.844 -1.3776,3.3926 -3.2216,3.4567"
       fill="#009edc"
       id="path249" />
    <path
       d="m 114.0766,122.9893 c -1.802,0.063 -3.3149,-1.3459 -3.3781,-3.1496 -0.0643,-1.8023 1.3462,-3.3154 3.1496,-3.3797 1.8025,-0.063 3.3151,1.3473 3.3783,3.1498 0.0632,1.8034 -1.3459,3.3166 -3.1498,3.3795"
       fill="#009edc"
       id="path250" />
    <path
       d="m 122.8376,112.8512 c -1.7609,0.062 -3.2394,-1.3162 -3.2998,-3.0765 -0.0635,-1.7617 1.3141,-3.2391 3.0762,-3.3012 1.7603,-0.062 3.238,1.3156 3.3012,3.0761 0.0606,1.7621 -1.3159,3.2395 -3.0776,3.3016"
       fill="#009edc"
       id="path251" />
    <path
       d="m 132.3773,103.443 c -1.7115,0.06 -3.147,-1.279 -3.2079,-2.9891 -0.059,-1.7113 1.2795,-3.1474 2.9905,-3.208 1.7113,-0.06 3.147,1.2781 3.2066,2.989 0.0603,1.7117 -1.2776,3.1471 -2.9892,3.2081"
       fill="#009edc"
       id="path252" />
    <path
       d="m 142.6353,94.8245 c -1.6494,0.058 -3.0322,-1.2322 -3.09,-2.8806 -0.0584,-1.6489 1.2308,-3.0331 2.88,-3.0914 1.6495,-0.058 3.0325,1.2325 3.0903,2.882 0.0581,1.648 -1.2308,3.0319 -2.8803,3.09"
       fill="#009edc"
       id="path253" />
    <path
       d="m 153.5482,87.0535 c -1.5866,0.056 -2.9186,-1.1839 -2.9742,-2.7713 -0.0555,-1.5877 1.1855,-2.9186 2.7718,-2.9741 1.5874,-0.056 2.9182,1.1854 2.9738,2.7717 0.0555,1.5863 -1.1855,2.9183 -2.7714,2.9737"
       fill="#009edc"
       id="path254" />
    <path
       d="m 165.0486,80.1823 c -1.5245,0.053 -2.8035,-1.1388 -2.8582,-2.6627 -0.053,-1.5245 1.139,-2.8046 2.6632,-2.8577 1.5244,-0.053 2.8034,1.1385 2.8579,2.6629 0.053,1.5242 -1.139,2.8046 -2.6629,2.8575"
       fill="#009edc"
       id="path255" />
    <path
       d="m 177.0627,74.2578 c -1.4624,0.052 -2.6884,-1.0919 -2.74,-2.5541 -0.0521,-1.4624 1.0919,-2.6884 2.554,-2.7399 1.4624,-0.052 2.6884,1.0919 2.7403,2.554 0.0516,1.4624 -1.0919,2.6883 -2.5543,2.74"
       fill="#009edc"
       id="path256" />
    <path
       d="m 189.5153,69.3223 c -1.3916,0.049 -2.5583,-1.0391 -2.6076,-2.4304 -0.0493,-1.3906 1.0392,-2.5582 2.4307,-2.6076 1.3901,-0.048 2.558,1.0389 2.6073,2.4305 0.0482,1.3915 -1.0389,2.5579 -2.4304,2.6075"
       fill="#009edc"
       id="path257" />
    <path
       d="m 202.3248,65.408 c -1.317,0.046 -2.4225,-0.9851 -2.4696,-2.302 -0.0453,-1.3167 0.9845,-2.4217 2.3015,-2.4681 1.3169,-0.047 2.423,0.983 2.4701,2.3 0.0453,1.3184 -0.9851,2.423 -2.302,2.4701"
       fill="#009edc"
       id="path258" />
    <path
       d="m 215.4058,62.5385 c -1.2438,0.044 -2.2878,-0.9286 -2.3309,-2.1711 -0.0428,-1.2438 0.9292,-2.2878 2.173,-2.332 1.2421,-0.043 2.2861,0.9289 2.329,2.1724 0.0445,1.2442 -0.929,2.2881 -2.1711,2.3307"
       fill="#009edc"
       id="path259" />
    <path
       d="m 228.6739,60.7274 c -1.169,0.042 -2.1509,-0.8733 -2.1914,-2.0438 -0.0417,-1.169 0.8733,-2.1497 2.0423,-2.1917 1.169,-0.04 2.1512,0.8735 2.1915,2.0441 0.0419,1.169 -0.8731,2.1495 -2.0424,2.1914"
       fill="#009edc"
       id="path260" />
    <path
       d="m 242.0458,59.974 c -1.0956,0.039 -2.0146,-0.8178 -2.0534,-1.9134 -0.038,-1.0962 0.8189,-2.016 1.9145,-2.054 1.0945,-0.038 2.0149,0.8175 2.0526,1.9134 0.0394,1.0958 -0.8175,2.016 -1.9137,2.054"
       fill="#009edc"
       id="path261" />
    <path
       d="m 255.4341,60.278 c -1.0213,0.035 -1.8794,-0.7633 -1.9148,-1.7857 -0.0354,-1.021 0.7637,-1.8782 1.7847,-1.915 1.0225,-0.035 1.8794,0.7636 1.9159,1.7848 0.0355,1.0226 -0.7633,1.8792 -1.7858,1.9159"
       fill="#009edc"
       id="path262" />
    <path
       d="m 268.7572,61.649 c -0.9476,0.033 -1.7427,-0.7081 -1.777,-1.656 -0.0326,-0.9479 0.7081,-1.7432 1.656,-1.7771 0.9479,-0.033 1.7439,0.709 1.777,1.656 0.0329,0.9476 -0.7081,1.7441 -1.656,1.7771"
       fill="#009edc"
       id="path263" />
    <path
       d="m 281.9253,64.087 c -0.8748,0.03 -1.6078,-0.6533 -1.6379,-1.5267 -0.032,-0.8745 0.652,-1.6078 1.5265,-1.6379 0.8736,-0.032 1.6078,0.652 1.6381,1.5265 0.0304,0.8748 -0.6536,1.6078 -1.5267,1.6381"
       fill="#009edc"
       id="path264" />
    <path
       d="m 294.851,67.5793 c -0.7999,0.028 -1.4712,-0.5975 -1.5001,-1.3975 -0.0281,-0.8002 0.599,-1.4714 1.3975,-1.4992 0.8016,-0.029 1.4726,0.5978 1.5004,1.3966 0.028,0.8011 -0.5979,1.4726 -1.3978,1.5001"
       fill="#009edc"
       id="path265" />
    <path
       d="m 307.4513,72.1034 c -0.737,0.027 -1.3539,-0.5494 -1.3805,-1.2863 -0.0249,-0.7356 0.5499,-1.3536 1.2869,-1.3792 0.7356,-0.027 1.3536,0.55 1.3799,1.2856 0.0255,0.737 -0.5499,1.3536 -1.2863,1.3799"
       fill="#009edc"
       id="path266" />
    <path
       d="m 319.6448,77.6279 c -0.6735,0.024 -1.2385,-0.5029 -1.2637,-1.1779 -0.0227,-0.6734 0.5043,-1.2384 1.1778,-1.2625 0.6738,-0.024 1.2399,0.5029 1.264,1.177 0.0229,0.6746 -0.504,1.2396 -1.1781,1.2634"
       fill="#009edc"
       id="path267" />
    <path
       d="m 331.3544,84.113 c -0.6114,0.022 -1.125,-0.4564 -1.1463,-1.0681 -0.0215,-0.6115 0.4564,-1.1248 1.0678,-1.1464 0.612,-0.023 1.1251,0.4564 1.1466,1.0681 0.0216,0.6117 -0.4561,1.1248 -1.0681,1.1464"
       fill="#009edc"
       id="path268" />
    <path
       d="m 342.5079,91.5147 c -0.5499,0.021 -1.0097,-0.4104 -1.0287,-0.959 -0.0201,-0.5498 0.4093,-1.0111 0.9593,-1.03 0.5485,-0.019 1.0097,0.4106 1.0286,0.9603 0.0205,0.5486 -0.4096,1.0098 -0.9592,1.0287"
       fill="#009edc"
       id="path269" />
    <path
       d="m 353.0349,99.784 c -0.4915,0.018 -0.9034,-0.3679 -0.9212,-0.8594 -0.0168,-0.4904 0.3679,-0.904 0.8594,-0.9216 0.4904,-0.016 0.9034,0.3677 0.9213,0.8595 0.0164,0.4915 -0.3679,0.9037 -0.8595,0.9215"
       fill="#009edc"
       id="path270" />
    <path
       d="m 361.3217,107.4616 c -0.4498,0.015 -0.828,-0.3364 -0.843,-0.7863 -0.0164,-0.4495 0.3365,-0.8266 0.7861,-0.843 0.4501,-0.015 0.8268,0.3365 0.843,0.7863 0.0153,0.4498 -0.3362,0.8266 -0.7861,0.843"
       fill="#009edc"
       id="path271" />
    <path
       d="m 321.3631,141.2383 c -0.517,0.019 -0.9504,-0.3871 -0.9694,-0.9028 -0.0176,-0.5182 0.3869,-0.9515 0.9037,-0.9693 0.5167,-0.019 0.9502,0.3855 0.9692,0.9022 0.0181,0.5182 -0.3864,0.9515 -0.9035,0.9699"
       fill="#009dd6"
       id="path272" />
    <path
       d="m 335.5902,130.1615 c -0.5164,0.018 -0.9501,-0.3866 -0.9691,-0.9037 -0.0179,-0.5168 0.3866,-0.9505 0.9037,-0.968 0.517,-0.019 0.9515,0.3855 0.9694,0.9025 0.0176,0.5168 -0.3869,0.9502 -0.904,0.9692"
       fill="#009dd6"
       id="path273" />
  </g>
</svg>
