<?xml version="1.0" encoding="UTF-8" standalone="no"?>
<svg
   version="1.1"
   width="235"
   height="108"
   viewBox="0 0 176.25001 80.999997"
   id="svg291"
   sodipodi:docname="logo2.svg"
   inkscape:version="1.3.2 (091e20e, 2023-11-25)"
   xmlns:inkscape="http://www.inkscape.org/namespaces/inkscape"
   xmlns:sodipodi="http://sodipodi.sourceforge.net/DTD/sodipodi-0.dtd"
   xmlns="http://www.w3.org/2000/svg"
   xmlns:svg="http://www.w3.org/2000/svg">
  <sodipodi:namedview
     id="namedview291"
     pagecolor="#505050"
     bordercolor="#eeeeee"
     borderopacity="1"
     inkscape:showpageshadow="0"
     inkscape:pageopacity="0"
     inkscape:pagecheckerboard="0"
     inkscape:deskcolor="#505050"
     inkscape:document-units="pt"
     inkscape:zoom="0.61007275"
     inkscape:cx="47.535314"
     inkscape:cy="70.483397"
     inkscape:window-width="1440"
     inkscape:window-height="847"
     inkscape:window-x="0"
     inkscape:window-y="25"
     inkscape:window-maximized="0"
     inkscape:current-layer="svg291" />
  <defs
     id="defs1">
    <clipPath
       clipPathUnits="userSpaceOnUse"
       id="clipPath291">
      <g
         id="g292"
         transform="matrix(1.3331632,0,0,1.3332176,-4.1622689,-1.3328921)">
        <path
           d="M 3.122,809.5699 H 1137.2662 V 1 H 3.122 Z"
           fill-rule="evenodd"
           id="path292" />
      </g>
    </clipPath>
  </defs>
  <path
     id="path6"
     d="m 133.5453,5e-5 c -5.03718,0 -10.12156,2.20672 -13.76805,5.85352 -3.16929,3.17007 -5.13846,7.43 -5.60009,11.83007 C 106.92483,6.94671 94.660935,-0.06298 80.708436,0.08501 l -21.732403,0.22998 0.479,45.18018 C 57.413204,40.94554 54.072357,37.1196 49.79879,34.61724 c 3.981897,-3.6462 6.859855,-8.58804 6.859855,-14.44043 0,-10.93889 -8.729853,-19.66992 -19.668434,-19.66992 H 7.9160137 0 v 7.91601 23.02881 7.91455 33.48779 7.91602 H 7.9160137 36.990211 c 10.238151,0 18.906874,-6.05075 22.681621,-14.83301 l 0.15527,14.63672 21.730943,-0.22998 c 0.31952,-0.003 0.63459,-0.023 0.952149,-0.0337 v 0.0117 h 31.924776 v -0.0425 h 36.57419 c 13.81688,0 24.75584,-10.94027 24.75584,-24.76026 0,-13.77198 -10.93896,-24.56836 -24.75584,-24.56836 H 133.5453 c -6.18858,0 -11.562,-5.08627 -11.562,-11.27636 0,-2.8791 1.44047,-5.85388 3.64746,-8.10938 2.2065,-2.2073 5.08446,-3.64746 7.91454,-3.64746 h 29.21776 V 0 Z M 80.791936,8.00103 c 17.749966,-0.188 32.200834,14.29201 32.389134,32.04199 0.1808,17.07938 -12.91039,31.09438 -29.712866,32.29687 h -0.95801 v 0.0513 c -0.344509,0.0145 -0.688299,0.0329 -1.035649,0.0366 L 67.658156,72.57428 66.975537,8.14752 Z M 7.9160137,8.4229 H 36.990211 c 6.140885,0 11.225091,5.56471 11.225091,11.75391 0,6.18859 -5.084206,11.2749 -11.225091,11.2749 H 33.007304 7.9160137 Z M 120.62246,34.18804 c 3.41427,2.93167 7.9097,4.68017 12.92284,4.68017 h 17.46386 c 9.06718,0 16.83983,7.62989 16.83983,16.65088 0,9.06919 -7.77265,16.84278 -16.83983,16.84278 h -36.57419 v -0.022 h -9.19335 c 9.7721,-7.35453 15.9963,-19.10117 15.85545,-32.38037 -0.0208,-1.96094 -0.18706,-3.88729 -0.47461,-5.77148 z M 7.9160137,39.36626 h 25.0912903 3.982907 c 9.019182,0 16.790026,7.62866 16.790026,16.64795 0,9.06739 -7.770844,16.83984 -16.790026,16.83984 H 7.9160137 Z"
     style="fill:#000000;fill-opacity:1" />
  <path
     d="m 171.72088,8.05331 v 0 c -2.0993,0 -3.80069,-1.7011 -3.80069,-3.7995 0,-2.0991 1.70139,-3.8006 3.80069,-3.8006 2.0979,0 3.7993,1.7015 3.7993,3.8006 0,2.0984 -1.7014,3.7995 -3.7993,3.7995"
     fill="#009edc"
     id="path9" />
</svg>
