<?xml version="1.0" encoding="UTF-8" standalone="no"?>
<!-- Created with Inkscape (http://www.inkscape.org/) -->

<svg
   version="1.1"
   id="svg2"
   width="611"
   height="96"
   viewBox="0 0 611.00001 96.000002"
   sodipodi:docname="note.svg"
   inkscape:version="1.3.2 (091e20e, 2023-11-25)"
   xmlns:inkscape="http://www.inkscape.org/namespaces/inkscape"
   xmlns:sodipodi="http://sodipodi.sourceforge.net/DTD/sodipodi-0.dtd"
   xmlns="http://www.w3.org/2000/svg"
   xmlns:svg="http://www.w3.org/2000/svg">
  <defs
     id="defs6" />
  <sodipodi:namedview
     id="namedview4"
     pagecolor="#ffffff"
     bordercolor="#000000"
     borderopacity="0.25"
     inkscape:showpageshadow="2"
     inkscape:pageopacity="0.0"
     inkscape:pagecheckerboard="0"
     inkscape:deskcolor="#d1d1d1"
     inkscape:zoom="0.87014784"
     inkscape:cx="574.615"
     inkscape:cy="-95.38609"
     inkscape:window-width="1440"
     inkscape:window-height="847"
     inkscape:window-x="0"
     inkscape:window-y="25"
     inkscape:window-maximized="0"
     inkscape:current-layer="svg2" />
  <path
     d="m 324.73565,2200 11.58821,-23.4792 25.91183,-3.766 -18.75007,-18.2769 4.42634,-25.8066 -23.17631,12.1846 -23.1763,-12.1846 4.42634,25.8066 -18.75,18.2769 25.91187,3.766 11.58809,23.4792"
     style="fill:#f1bf42;fill-opacity:1;fill-rule:nonzero;stroke:none;stroke-width:0.0112384"
     id="path14-7-0"
     transform="matrix(1.3333333,0,0,-1.3333333,0,2933.3333)" />
  <path
     d="m 37.499962,2200 11.588208,-23.4792 25.911831,-3.766 -18.750075,-18.2769 4.426339,-25.8066 -23.176303,12.1846 -23.176304,-12.1846 4.42634,25.8066 L 0,2172.7548 25.911866,2176.5208 37.499962,2200"
     style="fill:#f1bf42;fill-opacity:1;fill-rule:nonzero;stroke:none;stroke-width:0.0112384"
     id="path14"
     transform="matrix(1.3333333,0,0,-1.3333333,0,2933.3333)" />
  <path
     d="m 228.99042,2200 11.58821,-23.4792 25.91183,-3.766 -18.75007,-18.2769 4.42634,-25.8066 -23.17631,12.1846 -23.1763,-12.1846 4.42634,25.8066 -18.75,18.2769 25.91187,3.766 11.58809,23.4792"
     style="fill:#f1bf42;fill-opacity:1;fill-rule:nonzero;stroke:none;stroke-width:0.0112384"
     id="path14-9"
     transform="matrix(1.3333333,0,0,-1.3333333,0,2933.3333)" />
  <path
     d="m 420.48089,2200 11.58821,-23.4792 25.91183,-3.766 -18.75007,-18.2769 4.42634,-25.8066 -23.17631,12.1846 -23.1763,-12.1846 4.42634,25.8066 -18.75,18.2769 25.91187,3.766 11.58809,23.4792"
     style="fill:#f1bf42;fill-opacity:1;fill-rule:nonzero;stroke:none;stroke-width:0.0112384"
     id="path14-7-0-2"
     transform="matrix(1.3333333,0,0,-1.3333333,0,2933.3333)" />
  <path
     id="path14-7-0-2-7"
     style="fill:#d6d6d6;fill-opacity:1;fill-rule:nonzero;stroke:none;stroke-width:0.0149845"
     d="m 560.64122,3.9999999e-5 -0.004,0.0078 v 78.853521 l 0.004,-0.0019 30.90234,16.246091 -5.90234,-34.410161 25,-24.36914 -34.54883,-5.02148 z" />
  <path
     d="m 133.24519,2200 11.58821,-23.4792 25.91183,-3.766 -18.75007,-18.2769 4.42634,-25.8066 -23.17631,12.1846 -23.1763,-12.1846 4.42634,25.8066 -18.749999,18.2769 25.911869,3.766 11.58809,23.4792"
     style="fill:#f1bf42;fill-opacity:1;fill-rule:nonzero;stroke:none;stroke-width:0.0112384"
     id="path14-7"
     transform="matrix(1.3333333,0,0,-1.3333333,0,2933.3333)" />
</svg>
